<svg width="24" height="24" viewBox="0 0 24 24" fill="none" xmlns="http://www.w3.org/2000/svg">
<path d="M6.49987 1H17.5001C21.1667 1 23 2.83329 23 6.49987V17.5001C23 21.1667 21.1667 23 17.5001 23H6.49987C2.83329 23 1 21.1667 1 17.5001V6.49987C1 2.83329 2.83329 1 6.49987 1Z" fill="#6897FF"/>
<path fill-rule="evenodd" clip-rule="evenodd" d="M12.1133 16.52H11.9C9.69335 16.52 7.90001 14.72 7.90001 12.52V8C7.90001 5.79333 9.69335 4 11.9 4H12.1133C14.32 4 16.1133 5.79333 16.1133 8V12.52C16.1133 14.7267 14.32 16.52 12.1133 16.52ZM17.34 12.8466V11.5266V11.5199H18V12.8466C18 15.8666 15.4667 18.3333 12.32 18.4399V20.0133H11.6533V18.4399C8.51333 18.3199 6 15.8599 6 12.8466V11.5199H6.66667V12.8466C6.66667 15.5666 9.01333 17.7799 11.8933 17.7799H12.1133C14.9933 17.7799 17.34 15.5666 17.34 12.8466Z" fill="white"/>
<path fill-rule="evenodd" clip-rule="evenodd" d="M13.5 7.88596H10.5V8.53814H13.5V7.88596ZM10.5 9.85879H13.5V10.511H10.5V9.85879ZM10.5 11.8478H13.5V12.5H10.5V11.8478Z" fill="#467CF3"/>
</svg>
