<?xml version="1.0" encoding="UTF-8"?>
<svg preserveAspectRatio="none" viewBox="0 0 160 19" version="1.1" xmlns="http://www.w3.org/2000/svg" xmlns:xlink="http://www.w3.org/1999/xlink">
    <!-- Generator: Sketch 49 (51002) - http://www.bohemiancoding.com/sketch -->
    <title>物可视顶部装饰5</title>
    <desc>Created with Sketch.</desc>
    <defs></defs>
    <g id="Page-1" stroke="none" stroke-width="1" fill="none" fill-rule="evenodd">
        <g id="style一白-copy-14" transform="translate(-60.000000, -397.000000)" fill="#108CEE" fill-rule="nonzero">
            <g id="物可视顶部装饰5" transform="translate(60.000000, 398.628191)">
                <path d="M70.624,0.096 L70.624,1.056 L67.04,5.856 L67.04,8 L60.032,15.904 L32.992,15.904 L30.432,13.376 L0,13.376 L0,12.544 L45.248,12.544 L46.528,11.232 L58.816,11.232 L61.152,8.896 L63.072,8.896 L70.624,0.096 Z M89.376,0.096 L96.928,8.896 L98.848,8.896 L101.184,11.232 L113.472,11.232 L114.752,12.544 L160,12.544 L160,13.376 L129.568,13.376 L127.008,15.904 L99.968,15.904 L92.96,8 L92.96,5.856 L89.376,1.056 L89.376,0.096 Z"></path>
            </g>
        </g>
    </g>
</svg>
