<?xml version="1.0" encoding="UTF-8"?>
<svg preserveAspectRatio="none" viewBox="0 0 28 162" version="1.1" xmlns="http://www.w3.org/2000/svg" xmlns:xlink="http://www.w3.org/1999/xlink">
    <!-- Generator: Sketch 49 (51002) - http://www.bohemiancoding.com/sketch -->
    <title>物可视侧边装饰4</title>
    <desc>Created with Sketch.</desc>
    <defs></defs>
    <g id="Page-1" stroke="none" stroke-width="1" fill="none" fill-rule="evenodd" opacity="0.7">
        <g id="style一白-copy-14" transform="translate(-197.000000, -491.000000)" fill="#108CEE" fill-rule="nonzero">
            <g id="物可视侧边装饰4" transform="translate(197.750000, 491.430847)">
                <path d="M18.8142077,137.699454 L21.9617486,137.699454 L25.7650273,141.502732 L25.1092896,143.644809 L18.6830601,143.644809 L12.1693989,137.131148 L12.1693989,94.5081967 C12.1693989,93.4590164 11.6885246,92.4535519 10.8579235,91.7978142 L7.79781421,89.3497268 L7.79781421,86.5519126 L7.79781421,75.1857923 L7.79781421,72.3879781 L10.8579235,69.9398907 C11.6885246,69.284153 12.1693989,68.2786885 12.1693989,67.2295082 L12.1693989,24.6065574 L18.6393443,18.0928962 L25.0655738,18.0928962 L25.7213115,20.2349727 L21.9180328,24.0382514 L18.8142077,24.0382514 L14.5300546,28.3224044 L14.5300546,71.9508197 L14.5300546,75.8852459 L14.5300546,78.6830601 L14.5300546,83.0546448 L14.5300546,85.852459 L14.5300546,89.7868852 L14.5300546,133.415301 L18.8142077,137.699454 Z M1.78688525,67.0546448 L1.17486339,66.442623 L7.33879781,60.2786885 C7.90710383,59.7103825 8.21311475,58.9234973 8.21311475,58.0928962 L8.21311475,17.3060109 C8.21311475,16.2568306 8.60655738,15.2513661 9.34972678,14.5081967 L22.6830601,1.17486339 L23.295082,1.78688525 L10.0054645,15.1202186 C9.43715847,15.6885246 9.08743169,16.4754098 9.08743169,17.2622951 L9.08743169,58.0928962 C9.08743169,59.1420765 8.69398907,60.147541 7.95081967,60.8907104 L1.78688525,67.0546448 Z M22.726776,160.606557 L9.39344262,147.273224 C8.65027322,146.530055 8.2568306,145.52459 8.2568306,144.47541 L8.2568306,103.644809 C8.2568306,102.814208 7.95081967,102.071038 7.38251366,101.502732 L1.17486339,95.3387978 L1.78688525,94.726776 L7.95081967,100.89071 C8.69398907,101.63388 9.08743169,102.639344 9.08743169,103.688525 L9.08743169,144.519126 C9.08743169,145.349727 9.39344262,146.092896 10.0054645,146.704918 L23.3387978,160.038251 L22.726776,160.606557 Z"></path>
            </g>
        </g>
    </g>
</svg>
