<?xml version="1.0" encoding="UTF-8"?>
<svg preserveAspectRatio="none" viewBox="0 0 5 161" version="1.1" xmlns="http://www.w3.org/2000/svg" xmlns:xlink="http://www.w3.org/1999/xlink">
    <!-- Generator: Sketch 49 (51002) - http://www.bohemiancoding.com/sketch -->
    <title>物可视侧边装饰3</title>
    <desc>Created with Sketch.</desc>
    <defs></defs>
    <g id="Page-1" stroke="none" stroke-width="1" fill="none" fill-rule="evenodd">
        <g id="style一白-copy-14" transform="translate(-164.000000, -492.000000)" fill="#108CEE">
            <g id="物可视侧边装饰3" transform="translate(163.000000, 492.000000)">
                <g transform="translate(0.250000, 0.430847)">
                    <path d="M3.62140883,85.3841374 L3.62140883,97.2536013 L1.84993215,115.249236 L1.86705137,158.676929 L4.45605976,158.676929 L4.44916948,159.673384 L1.86737145,159.673384 L0.972178991,159.673384 L0.860857149,115.249236 L0.972178991,82.7148451 L3.62140883,85.3841374 Z M3.62140883,74.478416 L3.62140883,62.6089521 L1.84993215,44.6133173 L1.86705137,1.18562483 L4.45605976,1.18562483 L4.44916948,0.189169425 L1.86737145,0.189169425 L0.972178991,0.189169425 L0.860857149,44.6133173 L0.972178991,77.1477083 L3.62140883,74.478416 Z" id="Combined-Shape"></path>
                    <path d="M4.26196289,81.9999852 L4.26196289,77.8625682 L2.17587975,79.9312767 L4.26196289,81.9999852 Z M5.26196289,75.466964 L5.26196289,84.3955894 L0.760155401,79.9312767 L5.26196289,75.466964 Z" id="Triangle" fill-rule="nonzero"></path>
                </g>
            </g>
        </g>
    </g>
</svg>
