<?xml version="1.0" encoding="UTF-8"?>
<svg preserveAspectRatio="none" viewBox="0 0 160 12" version="1.1" xmlns="http://www.w3.org/2000/svg" xmlns:xlink="http://www.w3.org/1999/xlink">
    <!-- Generator: Sketch 49 (51002) - http://www.bohemiancoding.com/sketch -->
    <title>物可视顶部装饰2</title>
    <desc>Created with Sketch.</desc>
    <defs></defs>
    <g id="Page-1" stroke="none" stroke-width="1" fill="none" fill-rule="evenodd">
        <g id="style一白-copy-14" transform="translate(-60.000000, -257.000000)" fill="#108CEE" fill-rule="nonzero">
            <g id="物可视顶部装饰2" transform="translate(60.000000, 256.988191)">
                <g transform="translate(0.000000, 0.880000)" id="Shape">
                    <polygon points="49.728 8.44 49.536 8.44 44.032 3.288 0.736 3.288 0 4.6 16.608 4.6 16.864 4.056 29.344 4.056 30.08 5.656 36 5.656 35.264 4.088 36.384 4.088 36.768 4.888 44.416 4.888 49.184 9.272 80 9.272 80 8.44 53.76 8.44"></polygon>
                    <polygon points="159.264 3.288 115.968 3.288 110.464 8.44 110.272 8.44 106.24 8.44 80 8.44 80 9.272 110.816 9.272 115.584 4.888 123.232 4.888 123.616 4.088 124.736 4.088 124 5.656 129.92 5.656 130.656 4.056 143.136 4.056 143.392 4.6 160 4.6"></polygon>
                    <polygon points="74.912 6.456 73.664 5.24 47.328 5.24 48.608 6.52"></polygon>
                    <polygon points="117.728 0.408 112.448 5.24 86.336 5.24 85.248 6.296 54.144 6.296 48.736 6.296 42.304 0.44 42.272 0.408 17.44 0.408 17.44 0.728 42.144 0.728 48.576 6.584 48.608 6.616 54.144 6.616 105.856 6.616 111.392 6.616 117.856 0.728 142.56 0.728 142.56 0.408"></polygon>
                </g>
            </g>
        </g>
    </g>
</svg>
