<?xml version="1.0" encoding="UTF-8"?>
<svg preserveAspectRatio="none" viewBox="0 0 9 160" version="1.1" xmlns="http://www.w3.org/2000/svg" xmlns:xlink="http://www.w3.org/1999/xlink">
    <!-- Generator: Sketch 49 (51002) - http://www.bohemiancoding.com/sketch -->
    <title>物可视侧边装饰1</title>
    <desc>Created with Sketch.</desc>
    <defs></defs>
    <g id="Page-1" stroke="none" stroke-width="1" fill="none" fill-rule="evenodd">
        <g id="style一白-copy-14" transform="translate(-61.000000, -491.000000)" fill="#108CEE" fill-rule="nonzero">
            <g id="物可视侧边装饰1" transform="translate(66.030612, 571.000000) scale(-1, 1) translate(-66.030612, -571.000000) translate(62.530612, 491.000000)">
                <path d="M6.27111532,90.2459691 L6.27111532,90.5348435 L1.35355339,95.4524054 L0.646446609,94.7452987 L5.27111532,90.1206299 L5.27111532,69.1565809 L0.646446609,64.5319122 L1.35355339,63.8248055 L6.27111532,68.7423674 L6.27111532,90.2459691 Z M5.79248309,62.0327136 L5.0853763,62.7398204 L0.640306122,58.2947502 L0.640306122,0.18494898 L1.64030612,0.18494898 L1.64030612,57.8805367 L5.79248309,62.0327136 Z M2.92323232,56.9521928 L3.6303391,56.2450861 L6.88379273,59.4985397 L6.17668595,60.2056465 L2.92323232,56.9521928 Z M5.79248309,97.2444973 L1.64030612,101.396674 L1.64030612,159.092262 L0.640306122,159.092262 L0.640306122,100.982461 L5.0853763,96.5373905 L5.79248309,97.2444973 Z M2.92323232,102.325018 L6.17668595,99.0715644 L6.88379273,99.7786712 L3.6303391,103.032125 L2.92323232,102.325018 Z"></path>
            </g>
        </g>
    </g>
</svg>
