<?xml version="1.0" encoding="UTF-8"?>
<svg preserveAspectRatio="none" viewBox="0 0 158 14" version="1.1" xmlns="http://www.w3.org/2000/svg" xmlns:xlink="http://www.w3.org/1999/xlink">
    <!-- Generator: Sketch 49 (51002) - http://www.bohemiancoding.com/sketch -->
    <title>物可视顶部装饰1</title>
    <desc>Created with Sketch.</desc>
    <defs>
        <linearGradient x1="0%" y1="50.0352584%" x2="100%" y2="50.0352584%" id="linearGradient-1">
            <stop stop-color="#108CEE" stop-opacity="0" offset="0%"></stop>
            <stop stop-color="#108AEB" stop-opacity="0.1891" offset="7.406535%"></stop>
            <stop stop-color="#1089E9" offset="39.16%"></stop>
            <stop stop-color="#108CEE" offset="50.22%"></stop>
            <stop stop-color="#1088E8" offset="60.64%"></stop>
            <stop stop-color="#1089EA" stop-opacity="0.2338" offset="90.8%"></stop>
            <stop stop-color="#108CEE" stop-opacity="0" offset="100%"></stop>
        </linearGradient>
    </defs>
    <g id="Page-1" stroke="none" stroke-width="1" fill="none" fill-rule="evenodd">
        <g id="style一白-copy-14" transform="translate(-60.000000, -207.000000)" fill-rule="nonzero">
            <g id="物可视顶部装饰1" transform="translate(59.000000, 207.962264)">
                <g transform="translate(0.623298, 0.000000)" id="Shape">
                    <path d="M51.918688,3.41534762 L40.2218905,3.41534762 L40.2218905,2.57317855 L51.918688,2.57317855 C52.4258662,2.57317855 52.9013458,2.2759424 53.2500308,1.73100947 L54.2009899,0.244828755 L54.5813736,0.839301043 L53.6304144,2.32548176 C53.1866335,3.01903276 52.5843594,3.41534762 51.918688,3.41534762 Z" fill="#108CEE"></path>
                    <path d="M119.024705,3.49695721 L107.327908,3.49695721 C106.693935,3.49695721 106.059962,3.10064235 105.616181,2.40709135 L104.665222,0.920910628 L105.045606,0.32643834 L105.996565,1.81261906 C106.34525,2.35755199 106.820729,2.65478813 107.327908,2.65478813 L119.024705,2.65478813 L119.024705,3.49695721 Z" fill="#108CEE"></path>
                    <path d="M158.109126,10.5873452 L152.783755,5.26197395 C152.466768,4.94498757 152.086385,4.78649437 151.642604,4.78649437 L103.650866,4.78649437 C102.921797,4.78649437 102.224427,4.50120663 101.717249,3.99402842 L98.9594671,1.23624689 L60.2554298,1.23624689 L57.4976483,3.99402842 C56.9904701,4.50120663 56.3247987,4.78649437 55.59573,4.78649437 L7.60399172,4.78649437 C7.16021079,4.78649437 6.74812849,4.94498757 6.46284074,5.26197395 L1.13746952,10.5873452 L0.376702203,9.82657785 L5.70207343,4.50120663 C6.20925164,3.99402842 6.87492304,3.70874067 7.60399172,3.70874067 L55.59573,3.70874067 C56.0395109,3.70874067 56.4515932,3.55024748 56.736881,3.2332611 L59.8116489,0.158493191 L99.4349467,0.158493191 L102.509715,3.2332611 C102.826701,3.55024748 103.238783,3.70874067 103.682564,3.70874067 L151.674303,3.70874067 C152.403371,3.70874067 153.069043,3.99402842 153.576221,4.50120663 L158.869893,9.82657785 L158.109126,10.5873452 Z" fill="url(#linearGradient-1)"></path>
                    <path d="M11.788212,11.2530166 L47.7661664,11.2530166 L49.4778928,8.74882415 L55.6274287,8.74882415 L53.5987158,7.10049497 C53.5353185,7.03709769 53.4402226,7.00539905 53.3451267,7.00539905 L16.5747063,7.00539905 C16.162624,7.00539905 15.7822404,7.16389224 15.4969526,7.44917999 L11.788212,11.2530166 Z" fill="#108CEE" opacity="0.3"></path>
                    <path d="M147.585178,11.2530166 L111.607224,11.2530166 L109.895497,8.74882415 L103.745961,8.74882415 L105.774674,7.10049497 C105.838072,7.03709769 105.933168,7.00539905 106.028263,7.00539905 L142.798684,7.00539905 C143.210766,7.00539905 143.59115,7.16389224 143.876438,7.44917999 L147.585178,11.2530166 Z" fill="#108CEE" opacity="0.3"></path>
                </g>
            </g>
        </g>
    </g>
</svg>
