<?xml version="1.0" encoding="UTF-8"?>
<svg preserveAspectRatio="none" viewBox="0 0 8 161" version="1.1" xmlns="http://www.w3.org/2000/svg" xmlns:xlink="http://www.w3.org/1999/xlink">
    <!-- Generator: Sketch 49 (51002) - http://www.bohemiancoding.com/sketch -->
    <title>物可视侧边装饰2</title>
    <desc>Created with Sketch.</desc>
    <defs></defs>
    <g id="Page-1" stroke="none" stroke-width="1" fill="none" fill-rule="evenodd">
        <g id="style一白-copy-14" transform="translate(-112.000000, -492.000000)" fill="#108CEE" fill-rule="nonzero">
            <g id="物可视侧边装饰2" transform="translate(112.000000, 492.000000)">
                <path d="M5.37979577,81.1590831 L5.37979577,76.2538295 L3.16804842,70.1455344 L3.16804842,33.4252314 L5.37979577,27.2644657 L5.37979577,16.0575701 L3.16804842,13.8458227 L3.16804842,9.07656656 L6.76419628,12.6726988 L6.76419628,81.0973454 L6.76419628,148.546862 L3.16804842,152.142994 L3.16804842,147.373738 L5.37979577,145.16199 L5.37979577,133.955095 L3.16804842,127.794329 L3.16804842,91.0740261 L5.37979577,84.965731 L5.37979577,81.1590831 Z M1.03206292,26.6105034 L0.0198646854,26.6105034 L0.0198646854,6.81731265 L6.40633017,0.430847168 L7.1220624,1.1465794 L1.03206292,7.23657888 L1.03206292,26.6105034 Z M1.03206292,134.251191 L1.03206292,153.625115 L7.1220624,159.715115 L6.40633017,160.430847 L0.0198646854,154.044382 L0.0198646854,134.251191 L1.03206292,134.251191 Z"></path>
            </g>
        </g>
    </g>
</svg>
