<svg class="icon" style="width: 1em;height: 1em;vertical-align: middle;fill:#8a8c8f;overflow: hidden;" viewBox="0 0 1024 1024" version="1.1" xmlns="http://www.w3.org/2000/svg" p-id="31900"><path d="M512 352a160 160 0 1 0 0 320 160 160 0 0 0 0-320zM458.666667 512a53.333333 53.333333 0 1 1 106.666666 0 53.333333 53.333333 0 0 1-106.666666 0z" p-id="31901"></path><path d="M512 202.666667c-136.405333 0-255.104 73.386667-335.744 140.288a934.186667 934.186667 0 0 0-123.648 124.416c-3.114667 3.84-7.168 9.045333-7.168 9.045333l-7.253333 9.045333a42.666667 42.666667 0 0 0 0 53.077334l7.253333 9.045333s4.053333 5.205333 7.168 9.045333a934.485333 934.485333 0 0 0 123.648 124.458667C256.896 747.861333 375.594667 821.333333 512 821.333333s255.104-73.386667 335.744-140.288a934.4 934.4 0 0 0 123.648-124.416c3.114667-3.84 5.546667-6.869333 7.210667-9.045333l1.962666-2.56 5.077334-6.357333a42.666667 42.666667 0 0 0 0.128-53.12l-5.205334-6.570667-1.962666-2.56a814.72 814.72 0 0 0-33.792-40.106667 934.101333 934.101333 0 0 0-97.066667-93.354666C767.104 276.053333 648.405333 202.666667 512 202.666667z m-353.493333 313.642666a749.226667 749.226667 0 0 1-3.84-4.309333l3.84-4.309333a827.306667 827.306667 0 0 1 85.845333-82.645334C318.122667 363.946667 412.757333 309.333333 512 309.333333c99.242667 0 193.877333 54.613333 267.648 115.712A827.434667 827.434667 0 0 1 869.333333 512l-3.84 4.309333a827.349333 827.349333 0 0 1-85.845333 82.645334C705.877333 660.053333 611.242667 714.666667 512 714.666667c-99.242667 0-193.877333-54.613333-267.648-115.712A827.264 827.264 0 0 1 158.506667 516.266667z" p-id="31902"></path></svg>