<svg class="icon" style="width: 1em;height: 1em;vertical-align: middle;fill: currentColor;overflow: hidden;" viewBox="0 0 1024 1024" version="1.1" xmlns="http://www.w3.org/2000/svg" p-id="31913"><path d="M262.144 82.048a53.333333 53.333333 0 0 0-19.498667 72.874667l443.093334 767.488a53.333333 53.333333 0 0 0 92.373333-53.333334L335.018667 101.589333a53.333333 53.333333 0 0 0-72.874667-19.541333zM176.256 342.954667a751.530667 751.530667 0 0 1 97.92-69.248l53.333333 92.373333c-29.781333 17.578667-57.728 37.888-83.2 58.965333A827.306667 827.306667 0 0 0 154.666667 512l3.882666 4.309333c20.309333 22.613333 49.706667 52.693333 85.845334 82.645334C318.122667 660.053333 412.757333 714.666667 512 714.666667c5.504 0 11.008-0.170667 16.469333-0.512l57.770667 100.053333a396.586667 396.586667 0 0 1-74.24 7.125333c-136.405333 0-255.104-73.386667-335.744-140.288a934.485333 934.485333 0 0 1-123.648-124.416l-7.210667-9.045333-7.168-9.045333a42.666667 42.666667 0 0 1 0-53.077334l7.168-9.045333 7.210667-9.045333c6.186667-7.594667 15.146667-18.304 26.581333-31.061334a934.186667 934.186667 0 0 1 97.066667-93.354666z" p-id="31914"></path><path d="M352 512c0-26.282667 6.357333-51.114667 17.578667-73.002667l134.4 232.789334A160 160 0 0 1 352 512zM519.936 352.213333l134.4 232.832a160 160 0 0 0-134.442667-232.874666z" p-id="31915"></path><path d="M779.648 598.954667c-25.472 21.12-53.418667 41.386667-83.2 59.008l53.333333 92.373333a751.872 751.872 0 0 0 97.962667-69.290667 934.826667 934.826667 0 0 0 123.648-124.416c3.114667-3.84 5.546667-6.869333 7.168-9.045333l2.005333-2.56 5.077334-6.357333a42.666667 42.666667 0 0 0 0.128-53.12l-5.205334-6.570667-2.005333-2.56a814.72 814.72 0 0 0-33.792-40.106667 934.528 934.528 0 0 0-97.024-93.354666c-80.64-66.858667-199.338667-140.288-335.786667-140.288-25.386667 0-50.176 2.56-74.24 7.125333l57.770667 100.053333c5.461333-0.341333 10.965333-0.512 16.512-0.512 99.242667 0 193.877333 54.613333 267.648 115.712A827.818667 827.818667 0 0 1 869.333333 512l-3.84 4.309333a827.776 827.776 0 0 1-85.845333 82.645334z" p-id="31916"></path></svg>