<svg width="79" height="50" viewBox="0 0 79 50" fill="none" xmlns="http://www.w3.org/2000/svg">
<path fill-rule="evenodd" clip-rule="evenodd" d="M19.0179 3.09539H19.0551C19.2362 1.82238 20.3122 0.840332 21.6256 0.840332H57.1098C58.4231 0.840332 59.4989 1.82238 59.6802 3.09566H59.7062V3.3561C59.707 3.37334 59.7093 3.39015 59.7117 3.40696C59.7145 3.42717 59.7174 3.44739 59.7174 3.46841V10.1327C59.7174 10.1537 59.7145 10.1739 59.7117 10.1942C59.7093 10.211 59.707 10.2278 59.7062 10.245V12.5524H57.1108V4.30085H21.7849V12.5524H19.0179V3.09539Z" fill="#147AD9"/>
<path d="M18.9323 11.5105H59.7854V49.1595H18.9323V11.5105Z" fill="#147AD9" fill-opacity="0.8"/>
<path d="M18.9323 11.5105H40.0798V49.1595H18.9323V11.5105Z" fill="#147AD9"/>
<path d="M19.0554 47.153H19.0179V49.1593H59.8663L59.8777 47.5258C59.8777 47.4873 59.8682 47.4514 59.8663 47.4135V47.153H59.84C59.6582 45.8797 58.5782 44.8979 57.2598 44.8979H21.6357C20.3172 44.8977 19.2372 45.8797 19.0554 47.153Z" fill="#18DEA7"/>
<path d="M39.1365 31.0914C39.1365 31.167 39.1064 31.2394 39.053 31.2929C38.9996 31.3463 38.9271 31.3763 38.8516 31.3763C38.776 31.3763 38.7036 31.3463 38.6501 31.2929C38.5967 31.2394 38.5667 31.167 38.5667 31.0914V20.1259C38.5667 20.0504 38.5967 19.9779 38.6501 19.9245C38.7036 19.8711 38.776 19.8411 38.8516 19.8411C38.9271 19.8411 38.9996 19.8711 39.053 19.9245C39.1064 19.9779 39.1365 20.0504 39.1365 20.1259V31.0914Z" fill="#18DEA7"/>
<path d="M37.7126 21.4436C37.7126 22.1021 37.9743 22.7337 38.4399 23.1994C38.9056 23.6651 39.5372 23.9267 40.1958 23.9267C40.8543 23.9267 41.4859 23.6651 41.9516 23.1994C42.4173 22.7337 42.6789 22.1021 42.6789 21.4436C42.6789 20.785 42.4173 20.1534 41.9516 19.6877C41.4859 19.2221 40.8543 18.9604 40.1958 18.9604C39.5372 18.9604 38.9056 19.2221 38.4399 19.6877C37.9743 20.1534 37.7126 20.785 37.7126 21.4436Z" fill="#18DEA7"/>
<path d="M38.914 21.4434C38.914 21.7834 39.049 22.1094 39.2894 22.3498C39.5298 22.5901 39.8558 22.7252 40.1958 22.7252C40.5357 22.7252 40.8618 22.5901 41.1021 22.3498C41.3425 22.1094 41.4776 21.7834 41.4776 21.4434C41.4776 21.1035 41.3425 20.7774 41.1021 20.537C40.8618 20.2967 40.5357 20.1616 40.1958 20.1616C39.8558 20.1616 39.5298 20.2967 39.2894 20.537C39.049 20.7774 38.914 21.1035 38.914 21.4434Z" fill="#147AD9"/>
<path d="M45.3624 8.10603C45.3624 8.28663 45.2907 8.45984 45.163 8.58755C45.0353 8.71526 44.8621 8.78701 44.6815 8.78701H25.4566C25.276 8.78701 25.1028 8.71526 24.9751 8.58755C24.8474 8.45984 24.7756 8.28663 24.7756 8.10603C24.7756 7.92542 24.8474 7.75221 24.9751 7.6245C25.1028 7.49679 25.276 7.42505 25.4566 7.42505H44.6817C44.7711 7.42505 44.8597 7.44266 44.9423 7.47689C45.0249 7.51112 45.0999 7.56128 45.1632 7.62452C45.2264 7.68776 45.2765 7.76283 45.3107 7.84545C45.3449 7.92807 45.3625 8.01661 45.3624 8.10603Z" fill="#18DEA7"/>
</svg>
