<svg width="24" height="24" viewBox="0 0 24 24" fill="none" xmlns="http://www.w3.org/2000/svg">
<path d="M1 3.89618C1 3.35845 1.36912 3 1.92253 3H9.48598C9.85488 3 10.2237 3.35845 10.4085 3.7168L10.7639 4.79226H22.0295C22.583 4.79226 22.9521 5.15093 22.9521 5.68866V21.1039C23.1364 21.6417 22.7676 22 22.2142 22H1.92253C1.36912 22 1 21.6417 1 21.1039V3.89618Z" fill="#467CF3"/>
<path d="M19.9515 21H3.87395C3.34969 21 3 20.6343 3 20.0855V6.91481C3 6.36604 3.34969 6 3.87395 6H20.1263C20.6505 6 21 6.36604 21 6.91481V20.0855C21 20.4512 20.4757 21 19.9515 21Z" fill="white"/>
<path d="M22.0835 22H1.91685C1.36685 22 1 21.6421 1 21.105V8.93021C1 8.3931 1.36685 8.03517 1.91685 8.03517H21.9C22.6335 7.85599 23 8.3931 23 8.93021V21.105C23 21.642 22.6335 22 22.0835 22Z" fill="#6897FF"/>
<path d="M9.39988 12H3.6C3.39996 12 3 11.8333 3 11.5C3 11.167 3.1998 11 3.6 11H9.4C9.60004 11 10 11.167 10 11.5C9.99988 11.8332 9.60004 12 9.39988 12Z" fill="#A3C0FF"/>
<path d="M9.39988 15H3.6C3.39996 15 3 14.8333 3 14.5C3 14.167 3.1998 14 3.6 14H9.4C9.60004 14 10 14.167 10 14.5C9.99988 14.8332 9.60004 15 9.39988 15Z" fill="#A3C0FF"/>
</svg>
