<svg class="icon" style="width: 1em;height: 1em;vertical-align: middle;fill: currentColor;overflow: hidden;" viewBox="0 0 1024 1024" version="1.1" xmlns="http://www.w3.org/2000/svg" p-id="26226"><path d="M896 341.333333a85.333333 85.333333 0 0 1 85.333333 85.333334l-1.024 9.258666-84.48 380.16A85.333333 85.333333 0 0 1 810.666667 896H128a85.333333 85.333333 0 0 1-85.333333-85.333333V213.333333a85.333333 85.333333 0 0 1 85.333333-85.333333h256c47.786667 0 78.208 20.266667 108.757333 58.837333 2.048 2.56 11.136 14.378667 13.354667 17.152 6.741333 8.32 8.106667 9.344 5.973333 9.344H810.666667a85.333333 85.333333 0 0 1 85.333333 85.333334v42.666666z m-85.333333 0V298.666667h-298.88c-30.677333-0.170667-50.602667-14.506667-72.106667-41.088-2.944-3.669333-12.373333-15.914667-13.781333-17.749334C409.898667 219.733333 400.384 213.333333 384 213.333333H128v208.682667l1.28-5.546667C141.226667 367.786667 163.498667 341.333333 213.333333 341.333333h597.333334zM129.024 810.666667H810.666667l1.024-9.258667L894.976 426.666667H214.869333c-0.64 2.133333-1.536 5.162667-2.56 9.258666L129.024 810.666667z" p-id="26227"></path></svg>