<svg width="128" height="128" viewBox="0 0 128 128" fill="none" xmlns="http://www.w3.org/2000/svg">
    <g clip-path="url(#clip0_6710_425700)">
        <circle cx="64" cy="64" r="64" fill="#686868"/>
        <path fill-rule="evenodd" clip-rule="evenodd" d="M109.255 18.7452C100.304 9.79465 88.9006 3.69923 76.4858 1.22977C64.071 -1.23968 51.2028 0.0277257 39.5083 4.87173C27.8138 9.71574 17.8184 17.9188 10.786 28.4435C3.75354 38.9683 4.12451e-06 51.342 0 64C-4.12449e-06 76.658 3.75353 89.0318 10.7859 99.5565C17.8183 110.081 27.8138 118.284 39.5082 123.128C51.2027 127.972 64.071 129.24 76.4858 126.77C82.5476 125.565 88.3684 123.494 93.7802 120.649L75.464 102.333C71.8324 103.418 67.9842 104 64 104C41.9086 104 24 86.0914 24 64C24 41.9086 41.9086 24 64 24C75.0457 24 85.0457 28.4772 92.2843 35.7158L109.255 18.7452Z" fill="#A0A0A0"/>
        <path fill-rule="evenodd" clip-rule="evenodd" d="M109.255 18.7461C115.198 24.689 119.912 31.7444 123.128 39.5092C126.345 47.274 128 55.5963 128 64.0009C128 72.4055 126.345 80.7278 123.128 88.4927C119.912 96.2575 115.198 103.313 109.255 109.256L109.254 109.255C104.691 113.818 99.4729 117.656 93.781 120.648L75.4648 102.332C88.3383 98.4874 98.4902 88.3348 102.334 75.4609L102.334 75.4613C103.418 71.8308 104 67.9838 104 64.0009C104 52.9552 99.523 42.9552 92.2844 35.7167L109.255 18.7461Z" fill="#686868"/>
        <path fill-rule="evenodd" clip-rule="evenodd" d="M75.4662 102.332L50.565 77.4311C46.7047 73.5709 44.8528 68.4629 45.0091 63.4054C45.064 61.6203 45.3651 59.8971 45.8797 58.2687C46.7683 55.4492 48.33 52.796 50.565 50.5611C54.0205 47.1055 58.476 45.2592 63 45.0223V45.0259C63.3312 45.0087 63.6646 45 64 45C72.3968 45 79.5213 50.4468 82.0332 58H84.874L85.874 59H115C118.314 59 121 61.6863 121 65C121 68.3137 118.314 71 115 71H103.39C100.749 85.9608 89.7931 98.053 75.4662 102.332ZM64 45H64.3865C64.1288 44.9948 63.8711 44.9948 63.6135 45H64Z" fill="#474747"/>
        <path fill-rule="evenodd" clip-rule="evenodd" d="M58 64C58 60.6863 60.6863 58 64 58H116C119.314 58 122 60.6863 122 64C122 67.3137 119.314 70 116 70H64C60.6863 70 58 67.3137 58 64Z" fill="#B0B0B0"/>
        <circle cx="100.769" cy="100.77" r="6" transform="rotate(-45 100.769 100.77)" fill="#D4D4D4"/>
        <path fill-rule="evenodd" clip-rule="evenodd" d="M70 12C70 15.3137 67.3137 18 64 18C60.6863 18 58 15.3137 58 12C58 8.68629 60.6863 6 64 6C67.3137 6 70 8.68629 70 12ZM70 116C70 119.314 67.3137 122 64 122C60.6863 122 58 119.314 58 116C58 112.686 60.6863 110 64 110C67.3137 110 70 112.686 70 116ZM12 70C15.3137 70 18 67.3137 18 64C18 60.6863 15.3137 58 12 58C8.68629 58 6 60.6863 6 64C6 67.3137 8.68629 70 12 70ZM31.473 22.9878C33.8162 25.331 33.8162 29.13 31.473 31.4731C29.1299 33.8163 25.3309 33.8163 22.9878 31.4731C20.6446 29.13 20.6446 25.331 22.9878 22.9878C25.3309 20.6447 29.1299 20.6447 31.473 22.9878ZM31.473 105.012C33.8162 102.669 33.8162 98.87 31.473 96.5269C29.1299 94.1837 25.3309 94.1837 22.9878 96.5269C20.6446 98.87 20.6446 102.669 22.9878 105.012C25.3309 107.355 29.1299 107.355 31.473 105.012Z" fill="#C7C7C7"/>
    </g>
    <defs>
        <clipPath id="clip0_6710_425700">
            <rect width="128" height="128" fill="white"/>
        </clipPath>
    </defs>
</svg>
