<svg width="27" height="27" viewBox="0 0 27 27" fill="none" xmlns="http://www.w3.org/2000/svg">
<path fill-rule="evenodd" clip-rule="evenodd" d="M17.749 3H7.02558C5.90748 3 5 3.84848 5 4.88848V22.1442C5 23.1867 5.91008 24.0327 7.02558 24.0327H14.2844C14.0344 23.7347 13.8154 23.4098 13.6324 23.063H7.02558C6.48213 23.063 6.04009 22.6509 6.04009 22.1442V21.3055H13.0586C13.02 21.0426 13 20.7736 13 20.5C13 20.4451 13.0008 20.3903 13.0024 20.3358H6.04009V6.69697H18.7371V15.005C19.0927 15.0201 19.4395 15.0689 19.7745 15.1484V4.88848C19.7745 3.84606 18.8671 3 17.749 3ZM7.02558 3.9697H17.749C18.2924 3.9697 18.7345 4.38182 18.7345 4.88848V5.72727H6.04009V4.88848C6.04009 4.38182 6.48213 3.9697 7.02558 3.9697ZM10.4995 5.02424H14.2724C14.4805 5.02424 14.6495 4.86667 14.6495 4.67273C14.6495 4.47879 14.4805 4.32121 14.2724 4.32121H10.4995C10.2915 4.32121 10.1225 4.47879 10.1225 4.67273C10.1225 4.86667 10.2915 5.02424 10.4995 5.02424Z" fill="#467CF3"/>
<path fill-rule="evenodd" clip-rule="evenodd" d="M21.4996 20.1962C21.4709 18.4261 20.027 17 18.25 17C16.4551 17 15 18.4551 15 20.25C15 22.0449 16.4551 23.5 18.25 23.5C18.3609 23.5 18.4716 23.4944 18.5819 23.4833L18.4514 22.9928C18.3849 22.9975 18.3177 23 18.25 23L18.2045 22.9996C18.1474 22.9987 18.0906 22.996 18.0344 22.9917C16.6164 22.8817 15.5 21.6962 15.5 20.25C15.5 18.7313 16.7313 17.5 18.25 17.5C19.7688 17.5 21 18.7313 21 20.25C21 20.3191 20.9974 20.3876 20.9924 20.4555L21.4819 20.595C21.4939 20.4816 21.5 20.3665 21.5 20.25C21.5 20.232 21.4999 20.2141 21.4996 20.1962ZM21.1042 23.4375L21.4375 23.0466L20.2694 21.8888L21.0694 20.9507L18 20L19.1362 23.2178L19.9361 22.2797L21.1042 23.4375ZM18.25 18.5C19.1522 18.5 19.8949 19.1827 19.9897 20.0596L19.4521 19.9059C19.3027 19.3829 18.8211 19 18.25 19C17.5596 19 17 19.5596 17 20.25C17 20.7889 17.3411 21.2481 17.8191 21.4237L17.9658 21.9771C17.1345 21.8413 16.5 21.1198 16.5 20.25C16.5 19.2835 17.2835 18.5 18.25 18.5Z" fill="#00FBC4"/>
<path fill-rule="evenodd" clip-rule="evenodd" d="M9.04017 11.8882C8.96661 11.9882 8.9922 12.1056 9.13253 12.0709C9.28717 12.0405 10.059 11.912 10.6886 11.808V17.8819H11.5374V11.6683C11.5426 11.6675 11.5453 11.667 11.5453 11.667V9.29589C11.5453 8.98842 11.503 8.85318 11.2175 9.22508C10.5426 10.0557 9.31564 11.5601 9.04017 11.8882Z" fill="#467CF3"/>
<path fill-rule="evenodd" clip-rule="evenodd" d="M15.5052 15.1067C15.5787 15.0065 15.5532 14.8889 15.4128 14.9236C15.2576 14.9542 14.4805 15.0841 13.8495 15.1887V9H13.0011V15.3288C13.0004 15.329 13 15.329 13 15.329V17.7037C13 18.0116 13.0424 18.147 13.3278 17.7746C14.0027 16.9414 15.2297 15.4352 15.5052 15.1067Z" fill="#00FBC4"/>
<path d="M1 1V0.9H0.9V1H1ZM26 1H26.1V0.9H26V1ZM26 26V26.1H26.1V26H26ZM1 26H0.9V26.1H1V26ZM0.9 1V1.20161H1.1V1H0.9ZM0.9 1.60484V2.00806H1.1V1.60484H0.9ZM0.9 2.41129V2.81452H1.1V2.41129H0.9ZM0.9 3.21774V3.62097H1.1V3.21774H0.9ZM0.9 4.02419V4.42742H1.1V4.02419H0.9ZM0.9 4.83065V5.23387H1.1V4.83065H0.9ZM0.9 5.6371V6.04032H1.1V5.6371H0.9ZM0.9 6.44355V6.84677H1.1V6.44355H0.9ZM0.9 7.25V7.65323H1.1V7.25H0.9ZM0.9 8.05645V8.45968H1.1V8.05645H0.9ZM0.9 8.8629V9.26613H1.1V8.8629H0.9ZM0.9 9.66936V10.0726H1.1V9.66936H0.9ZM0.9 10.4758V10.879H1.1V10.4758H0.9ZM0.9 11.2823V11.6855H1.1V11.2823H0.9ZM0.9 12.0887V12.4919H1.1V12.0887H0.9ZM0.9 12.8952V13.2984H1.1V12.8952H0.9ZM0.9 13.7016V14.1048H1.1V13.7016H0.9ZM0.9 14.5081V14.9113H1.1V14.5081H0.9ZM0.9 15.3145V15.7177H1.1V15.3145H0.9ZM0.9 16.121V16.5242H1.1V16.121H0.9ZM0.9 16.9274V17.3306H1.1V16.9274H0.9ZM0.9 17.7339V18.1371H1.1V17.7339H0.9ZM0.9 18.5403V18.9435H1.1V18.5403H0.9ZM0.9 19.3468V19.75H1.1V19.3468H0.9ZM0.9 20.1532V20.5564H1.1V20.1532H0.9ZM0.9 20.9597V21.3629H1.1V20.9597H0.9ZM0.9 21.7661V22.1693H1.1V21.7661H0.9ZM0.9 22.5726V22.9758H1.1V22.5726H0.9ZM0.9 23.379V23.7822H1.1V23.379H0.9ZM0.9 24.1855V24.5887H1.1V24.1855H0.9ZM0.9 24.9919V25.3951H1.1V24.9919H0.9ZM0.9 25.7984V26H1.1V25.7984H0.9ZM1 26.1H1.20161V25.9H1V26.1ZM1.60484 26.1H2.00806V25.9H1.60484V26.1ZM2.41129 26.1H2.81452V25.9H2.41129V26.1ZM3.21774 26.1H3.62097V25.9H3.21774V26.1ZM4.02419 26.1H4.42742V25.9H4.02419V26.1ZM4.83065 26.1H5.23387V25.9H4.83065V26.1ZM5.6371 26.1H6.04032V25.9H5.6371V26.1ZM6.44355 26.1H6.84677V25.9H6.44355V26.1ZM7.25 26.1H7.65323V25.9H7.25V26.1ZM8.05645 26.1H8.45968V25.9H8.05645V26.1ZM8.8629 26.1H9.26613V25.9H8.8629V26.1ZM9.66936 26.1H10.0726V25.9H9.66936V26.1ZM10.4758 26.1H10.879V25.9H10.4758V26.1ZM11.2823 26.1H11.6855V25.9H11.2823V26.1ZM12.0887 26.1H12.4919V25.9H12.0887V26.1ZM12.8952 26.1H13.2984V25.9H12.8952V26.1ZM13.7016 26.1H14.1048V25.9H13.7016V26.1ZM14.5081 26.1H14.9113V25.9H14.5081V26.1ZM15.3145 26.1H15.7177V25.9H15.3145V26.1ZM16.121 26.1H16.5242V25.9H16.121V26.1ZM16.9274 26.1H17.3306V25.9H16.9274V26.1ZM17.7339 26.1H18.1371V25.9H17.7339V26.1ZM18.5403 26.1H18.9435V25.9H18.5403V26.1ZM19.3468 26.1H19.75V25.9H19.3468V26.1ZM20.1532 26.1H20.5564V25.9H20.1532V26.1ZM20.9597 26.1H21.3629V25.9H20.9597V26.1ZM21.7661 26.1H22.1693V25.9H21.7661V26.1ZM22.5726 26.1H22.9758V25.9H22.5726V26.1ZM23.379 26.1H23.7822V25.9H23.379V26.1ZM24.1855 26.1H24.5887V25.9H24.1855V26.1ZM24.9919 26.1H25.3951V25.9H24.9919V26.1ZM25.7984 26.1H26V25.9H25.7984V26.1ZM26.1 26V25.7984H25.9V26H26.1ZM26.1 25.3952V24.9919H25.9V25.3952H26.1ZM26.1 24.5887V24.1855H25.9V24.5887H26.1ZM26.1 23.7823V23.379H25.9V23.7823H26.1ZM26.1 22.9758V22.5726H25.9V22.9758H26.1ZM26.1 22.1694V21.7661H25.9V22.1694H26.1ZM26.1 21.3629V20.9597H25.9V21.3629H26.1ZM26.1 20.5565V20.1532H25.9V20.5565H26.1ZM26.1 19.75V19.3468H25.9V19.75H26.1ZM26.1 18.9435V18.5403H25.9V18.9435H26.1ZM26.1 18.1371V17.7339H25.9V18.1371H26.1ZM26.1 17.3306V16.9274H25.9V17.3306H26.1ZM26.1 16.5242V16.121H25.9V16.5242H26.1ZM26.1 15.7177V15.3145H25.9V15.7177H26.1ZM26.1 14.9113V14.5081H25.9V14.9113H26.1ZM26.1 14.1048V13.7016H25.9V14.1048H26.1ZM26.1 13.2984V12.8952H25.9V13.2984H26.1ZM26.1 12.4919V12.0887H25.9V12.4919H26.1ZM26.1 11.6855V11.2823H25.9V11.6855H26.1ZM26.1 10.879V10.4758H25.9V10.879H26.1ZM26.1 10.0726V9.66935H25.9V10.0726H26.1ZM26.1 9.26613V8.8629H25.9V9.26613H26.1ZM26.1 8.45968V8.05645H25.9V8.45968H26.1ZM26.1 7.65323V7.25H25.9V7.65323H26.1ZM26.1 6.84678V6.44355H25.9V6.84678H26.1ZM26.1 6.04033V5.6371H25.9V6.04033H26.1ZM26.1 5.23388V4.83065H25.9V5.23388H26.1ZM26.1 4.42743V4.0242H25.9V4.42743H26.1ZM26.1 3.62098V3.21775H25.9V3.62098H26.1ZM26.1 2.81453V2.4113H25.9V2.81453H26.1ZM26.1 2.00808V1.60485H25.9V2.00808H26.1ZM26.1 1.20163V1H25.9V1.20163H26.1ZM26 0.9H25.7984V1.1H26V0.9ZM25.3952 0.9H24.9919V1.1H25.3952V0.9ZM24.5887 0.9H24.1855V1.1H24.5887V0.9ZM23.7823 0.9H23.379V1.1H23.7823V0.9ZM22.9758 0.9H22.5726V1.1H22.9758V0.9ZM22.1694 0.9H21.7661V1.1H22.1694V0.9ZM21.3629 0.9H20.9597V1.1H21.3629V0.9ZM20.5565 0.9H20.1532V1.1H20.5565V0.9ZM19.75 0.9H19.3468V1.1H19.75V0.9ZM18.9435 0.9H18.5403V1.1H18.9435V0.9ZM18.1371 0.9H17.7339V1.1H18.1371V0.9ZM17.3306 0.9H16.9274V1.1H17.3306V0.9ZM16.5242 0.9H16.121V1.1H16.5242V0.9ZM15.7177 0.9H15.3145V1.1H15.7177V0.9ZM14.9113 0.9H14.5081V1.1H14.9113V0.9ZM14.1048 0.9H13.7016V1.1H14.1048V0.9ZM13.2984 0.9H12.8952V1.1H13.2984V0.9ZM12.4919 0.9H12.0887V1.1H12.4919V0.9ZM11.6855 0.9H11.2823V1.1H11.6855V0.9ZM10.879 0.9H10.4758V1.1H10.879V0.9ZM10.0726 0.9H9.66935V1.1H10.0726V0.9ZM9.26613 0.9H8.8629V1.1H9.26613V0.9ZM8.45968 0.9H8.05645V1.1H8.45968V0.9ZM7.65323 0.9H7.25V1.1H7.65323V0.9ZM6.84678 0.9H6.44355V1.1H6.84678V0.9ZM6.04033 0.9H5.6371V1.1H6.04033V0.9ZM5.23388 0.9H4.83065V1.1H5.23388V0.9ZM4.42743 0.9H4.0242V1.1H4.42743V0.9ZM3.62098 0.9H3.21775V1.1H3.62098V0.9ZM2.81453 0.9H2.4113V1.1H2.81453V0.9ZM2.00808 0.9H1.60485V1.1H2.00808V0.9ZM1.20163 0.9H1V1.1H1.20163V0.9ZM1 1V0.8H0.8V1H1ZM26 1H26.2V0.8H26V1ZM26 26V26.2H26.2V26H26ZM1 26H0.8V26.2H1V26ZM0.8 1V1.20161H1.2V1H0.8ZM0.8 1.60484V2.00806H1.2V1.60484H0.8ZM0.8 2.41129V2.81452H1.2V2.41129H0.8ZM0.8 3.21774V3.62097H1.2V3.21774H0.8ZM0.8 4.02419V4.42742H1.2V4.02419H0.8ZM0.8 4.83065V5.23387H1.2V4.83065H0.8ZM0.8 5.6371V6.04032H1.2V5.6371H0.8ZM0.8 6.44355V6.84677H1.2V6.44355H0.8ZM0.8 7.25V7.65323H1.2V7.25H0.8ZM0.8 8.05645V8.45968H1.2V8.05645H0.8ZM0.8 8.8629V9.26613H1.2V8.8629H0.8ZM0.8 9.66936V10.0726H1.2V9.66936H0.8ZM0.8 10.4758V10.879H1.2V10.4758H0.8ZM0.8 11.2823V11.6855H1.2V11.2823H0.8ZM0.8 12.0887V12.4919H1.2V12.0887H0.8ZM0.8 12.8952V13.2984H1.2V12.8952H0.8ZM0.8 13.7016V14.1048H1.2V13.7016H0.8ZM0.8 14.5081V14.9113H1.2V14.5081H0.8ZM0.8 15.3145V15.7177H1.2V15.3145H0.8ZM0.8 16.121V16.5242H1.2V16.121H0.8ZM0.8 16.9274V17.3306H1.2V16.9274H0.8ZM0.8 17.7339V18.1371H1.2V17.7339H0.8ZM0.8 18.5403V18.9435H1.2V18.5403H0.8ZM0.8 19.3468V19.75H1.2V19.3468H0.8ZM0.8 20.1532V20.5564H1.2V20.1532H0.8ZM0.8 20.9597V21.3629H1.2V20.9597H0.8ZM0.8 21.7661V22.1693H1.2V21.7661H0.8ZM0.8 22.5726V22.9758H1.2V22.5726H0.8ZM0.8 23.379V23.7822H1.2V23.379H0.8ZM0.8 24.1855V24.5887H1.2V24.1855H0.8ZM0.8 24.9919V25.3951H1.2V24.9919H0.8ZM0.8 25.7984V26H1.2V25.7984H0.8ZM1 26.2H1.20161V25.8H1V26.2ZM1.60484 26.2H2.00806V25.8H1.60484V26.2ZM2.41129 26.2H2.81452V25.8H2.41129V26.2ZM3.21774 26.2H3.62097V25.8H3.21774V26.2ZM4.02419 26.2H4.42742V25.8H4.02419V26.2ZM4.83065 26.2H5.23387V25.8H4.83065V26.2ZM5.6371 26.2H6.04032V25.8H5.6371V26.2ZM6.44355 26.2H6.84677V25.8H6.44355V26.2ZM7.25 26.2H7.65323V25.8H7.25V26.2ZM8.05645 26.2H8.45968V25.8H8.05645V26.2ZM8.8629 26.2H9.26613V25.8H8.8629V26.2ZM9.66936 26.2H10.0726V25.8H9.66936V26.2ZM10.4758 26.2H10.879V25.8H10.4758V26.2ZM11.2823 26.2H11.6855V25.8H11.2823V26.2ZM12.0887 26.2H12.4919V25.8H12.0887V26.2ZM12.8952 26.2H13.2984V25.8H12.8952V26.2ZM13.7016 26.2H14.1048V25.8H13.7016V26.2ZM14.5081 26.2H14.9113V25.8H14.5081V26.2ZM15.3145 26.2H15.7177V25.8H15.3145V26.2ZM16.121 26.2H16.5242V25.8H16.121V26.2ZM16.9274 26.2H17.3306V25.8H16.9274V26.2ZM17.7339 26.2H18.1371V25.8H17.7339V26.2ZM18.5403 26.2H18.9435V25.8H18.5403V26.2ZM19.3468 26.2H19.75V25.8H19.3468V26.2ZM20.1532 26.2H20.5564V25.8H20.1532V26.2ZM20.9597 26.2H21.3629V25.8H20.9597V26.2ZM21.7661 26.2H22.1693V25.8H21.7661V26.2ZM22.5726 26.2H22.9758V25.8H22.5726V26.2ZM23.379 26.2H23.7822V25.8H23.379V26.2ZM24.1855 26.2H24.5887V25.8H24.1855V26.2ZM24.9919 26.2H25.3951V25.8H24.9919V26.2ZM25.7984 26.2H26V25.8H25.7984V26.2ZM26.2 26V25.7984H25.8V26H26.2ZM26.2 25.3952V24.9919H25.8V25.3952H26.2ZM26.2 24.5887V24.1855H25.8V24.5887H26.2ZM26.2 23.7823V23.379H25.8V23.7823H26.2ZM26.2 22.9758V22.5726H25.8V22.9758H26.2ZM26.2 22.1694V21.7661H25.8V22.1694H26.2ZM26.2 21.3629V20.9597H25.8V21.3629H26.2ZM26.2 20.5565V20.1532H25.8V20.5565H26.2ZM26.2 19.75V19.3468H25.8V19.75H26.2ZM26.2 18.9435V18.5403H25.8V18.9435H26.2ZM26.2 18.1371V17.7339H25.8V18.1371H26.2ZM26.2 17.3306V16.9274H25.8V17.3306H26.2ZM26.2 16.5242V16.121H25.8V16.5242H26.2ZM26.2 15.7177V15.3145H25.8V15.7177H26.2ZM26.2 14.9113V14.5081H25.8V14.9113H26.2ZM26.2 14.1048V13.7016H25.8V14.1048H26.2ZM26.2 13.2984V12.8952H25.8V13.2984H26.2ZM26.2 12.4919V12.0887H25.8V12.4919H26.2ZM26.2 11.6855V11.2823H25.8V11.6855H26.2ZM26.2 10.879V10.4758H25.8V10.879H26.2ZM26.2 10.0726V9.66935H25.8V10.0726H26.2ZM26.2 9.26613V8.8629H25.8V9.26613H26.2ZM26.2 8.45968V8.05645H25.8V8.45968H26.2ZM26.2 7.65323V7.25H25.8V7.65323H26.2ZM26.2 6.84678V6.44355H25.8V6.84678H26.2ZM26.2 6.04033V5.6371H25.8V6.04033H26.2ZM26.2 5.23388V4.83065H25.8V5.23388H26.2ZM26.2 4.42743V4.0242H25.8V4.42743H26.2ZM26.2 3.62098V3.21775H25.8V3.62098H26.2ZM26.2 2.81453V2.4113H25.8V2.81453H26.2ZM26.2 2.00808V1.60485H25.8V2.00808H26.2ZM26.2 1.20163V1H25.8V1.20163H26.2ZM26 0.8H25.7984V1.2H26V0.8ZM25.3952 0.8H24.9919V1.2H25.3952V0.8ZM24.5887 0.8H24.1855V1.2H24.5887V0.8ZM23.7823 0.8H23.379V1.2H23.7823V0.8ZM22.9758 0.8H22.5726V1.2H22.9758V0.8ZM22.1694 0.8H21.7661V1.2H22.1694V0.8ZM21.3629 0.8H20.9597V1.2H21.3629V0.8ZM20.5565 0.8H20.1532V1.2H20.5565V0.8ZM19.75 0.8H19.3468V1.2H19.75V0.8ZM18.9435 0.8H18.5403V1.2H18.9435V0.8ZM18.1371 0.8H17.7339V1.2H18.1371V0.8ZM17.3306 0.8H16.9274V1.2H17.3306V0.8ZM16.5242 0.8H16.121V1.2H16.5242V0.8ZM15.7177 0.8H15.3145V1.2H15.7177V0.8ZM14.9113 0.8H14.5081V1.2H14.9113V0.8ZM14.1048 0.8H13.7016V1.2H14.1048V0.8ZM13.2984 0.8H12.8952V1.2H13.2984V0.8ZM12.4919 0.8H12.0887V1.2H12.4919V0.8ZM11.6855 0.8H11.2823V1.2H11.6855V0.8ZM10.879 0.8H10.4758V1.2H10.879V0.8ZM10.0726 0.8H9.66935V1.2H10.0726V0.8ZM9.26613 0.8H8.8629V1.2H9.26613V0.8ZM8.45968 0.8H8.05645V1.2H8.45968V0.8ZM7.65323 0.8H7.25V1.2H7.65323V0.8ZM6.84678 0.8H6.44355V1.2H6.84678V0.8ZM6.04033 0.8H5.6371V1.2H6.04033V0.8ZM5.23388 0.8H4.83065V1.2H5.23388V0.8ZM4.42743 0.8H4.0242V1.2H4.42743V0.8ZM3.62098 0.8H3.21775V1.2H3.62098V0.8ZM2.81453 0.8H2.4113V1.2H2.81453V0.8ZM2.00808 0.8H1.60485V1.2H2.00808V0.8ZM1.20163 0.8H1V1.2H1.20163V0.8Z" fill="#A04CF5"/>
</svg>
