<svg class="icon" style="width: 1em;height: 1em;vertical-align: middle;fill: #8a8c8f;stroke: #8a8c8f;overflow: hidden;" viewBox="0 0 1024 1024" version="1.1" xmlns="http://www.w3.org/2000/svg" p-id="16757"><path d="M845.11 536.29c-22.08 0-42.83-8.6-58.45-24.22h-0.01L511.93 237.34c-32.23-32.23-32.23-84.66 0-116.89l32.27-32.28c32.24-32.23 84.67-32.24 116.9 0L935.83 362.9c32.23 32.23 32.23 84.67 0 116.89l-32.28 32.28c-15.61 15.61-36.37 24.22-58.44 24.22zM602.65 119.08c-7.06 0-14.11 2.68-19.49 8.06l-32.27 32.27c-10.75 10.74-10.75 28.22-0.01 38.97l274.73 274.73h0.01c10.39 10.41 28.54 10.41 38.95 0l32.29-32.28c10.74-10.74 10.74-28.22-0.01-38.97L622.14 127.13c-5.38-5.36-12.43-8.05-19.49-8.05z" fill="#333333" p-id="16758"></path><path d="M118.97 960c-14.29 0-28.18-5.62-38.76-16.2-15.21-15.21-20.17-37.24-12.94-57.5l193.01-540.41c7.48-20.95 23.39-38.24 43.63-47.45L525.13 197.9c10.46-4.74 22.76-2.52 30.88 5.6L820.5 468c8.13 8.12 10.35 20.43 5.6 30.88L725.56 720.09c-9.21 20.25-26.5 36.15-47.45 43.63l-540.4 193c-6.17 2.2-12.49 3.28-18.74 3.28z m411.58-704.04l-203.83 92.65c-6.75 3.07-12.05 8.83-14.55 15.82l-193 540.4 540.4-193c6.99-2.5 12.75-7.8 15.82-14.55l92.65-203.83-237.49-237.49z" fill="#333333" p-id="16759"></path><path d="M104.17 947.38c-7.05 0-14.1-2.69-19.48-8.07-10.73-10.73-10.76-28.1-0.09-38.87 0.03-0.03 0.06-0.07 0.09-0.09l278.06-278.07c10.75-10.76 28.2-10.76 38.96 0 10.76 10.76 10.76 28.2 0 38.96L123.66 939.31c-5.35 5.36-12.38 8.05-19.4 8.07h-0.09zM492.45 621.41c-23.02 0-46.04-8.76-63.57-26.28-35.04-35.06-35.04-92.09 0-127.13 35.04-35.06 92.09-35.06 127.13 0 35.04 35.04 35.04 92.07 0.01 127.12-0.01 0-0.01 0-0.01 0.01-17.52 17.51-40.55 26.28-63.56 26.28z m44.08-45.77h0.13-0.13z m-44.08-78.85c-8.91 0-17.82 3.39-24.61 10.17-13.56 13.57-13.56 35.64 0.01 49.2 13.55 13.56 35.62 13.56 49.2 0 13.56-13.57 13.56-35.64 0-49.2-6.79-6.78-15.69-10.17-24.6-10.17z" p-id="16760"></path></svg>