<svg class="icon" style="width: 1em;height: 1em;vertical-align: middle;fill: currentColor;overflow: hidden;" viewBox="0 0 1024 1024" version="1.1" xmlns="http://www.w3.org/2000/svg" p-id="567"><path d="M874.666667 874.666667H149.333333c-36.266667 0-64-27.733333-64-64V213.333333c0-36.266667 27.733333-64 64-64h725.333334c36.266667 0 64 27.733333 64 64v597.333334c0 36.266667-27.733333 64-64 64zM149.333333 192c-12.8 0-21.333333 8.533333-21.333333 21.333333v597.333334c0 12.8 8.533333 21.333333 21.333333 21.333333h725.333334c12.8 0 21.333333-8.533333 21.333333-21.333333V213.333333c0-12.8-8.533333-21.333333-21.333333-21.333333H149.333333zM309.333333 405.333333c-29.866667 0-53.333333-23.466667-53.333333-53.333333s23.466667-53.333333 53.333333-53.333333 53.333333 23.466667 53.333334 53.333333-23.466667 53.333333-53.333334 53.333333z m0-64c-6.4 0-10.666667 4.266667-10.666666 10.666667s4.266667 10.666667 10.666666 10.666667 10.666667-4.266667 10.666667-10.666667-4.266667-10.666667-10.666667-10.666667zM874.666667 874.666667H149.333333c-36.266667 0-64-27.733333-64-64v-85.333334c0-6.4 2.133333-10.666667 6.4-14.933333l213.333334-213.333333c8.533333-8.533333 19.2-8.533333 27.733333-2.133334l89.6 72.533334 115.2-134.4c6.4-8.533333 19.2-10.666667 29.866667-2.133334l362.666666 277.333334c4.266667 4.266667 8.533333 10.666667 8.533334 17.066666v85.333334c0 36.266667-27.733333 64-64 64zM128 733.866667V810.666667c0 12.8 8.533333 21.333333 21.333333 21.333333h725.333334c12.8 0 21.333333-8.533333 21.333333-21.333333v-74.666667L556.8 477.866667l-115.2 134.4c-8.533333 8.533333-21.333333 10.666667-29.866667 2.133333L320 541.866667l-192 192z" p-id="568"></path></svg>