<svg class="icon" style="width: 1em;height: 1em;vertical-align: middle;fill: currentColor;overflow: hidden;" viewBox="0 0 1024 1024" version="1.1" xmlns="http://www.w3.org/2000/svg" p-id="644"><path d="M896 448c-12.8 0-21.333333-8.533333-21.333333-21.333333V149.333333H597.333333c-12.8 0-21.333333-8.533333-21.333333-21.333333s8.533333-21.333333 21.333333-21.333333h298.666667c12.8 0 21.333333 8.533333 21.333333 21.333333v298.666667c0 12.8-8.533333 21.333333-21.333333 21.333333zM832 917.333333H192c-46.933333 0-85.333333-38.4-85.333333-85.333333V192c0-46.933333 38.4-85.333333 85.333333-85.333333h192c12.8 0 21.333333 8.533333 21.333333 21.333333s-8.533333 21.333333-21.333333 21.333333H192c-23.466667 0-42.666667 19.2-42.666667 42.666667v640c0 23.466667 19.2 42.666667 42.666667 42.666667h640c23.466667 0 42.666667-19.2 42.666667-42.666667v-202.666667c0-12.8 8.533333-21.333333 21.333333-21.333333s21.333333 8.533333 21.333333 21.333333V832c0 46.933333-38.4 85.333333-85.333333 85.333333zM550.4 494.933333c-6.4 0-10.666667-2.133333-14.933333-6.4-8.533333-8.533333-8.533333-21.333333 0-29.866666L861.866667 132.266667c8.533333-8.533333 21.333333-8.533333 29.866666 0 8.533333 8.533333 8.533333 21.333333 0 29.866666L565.333333 488.533333c-4.266667 4.266667-8.533333 6.4-14.933333 6.4z" p-id="645"></path></svg>