<svg width="79" height="50" viewBox="0 0 79 50" fill="none" xmlns="http://www.w3.org/2000/svg">
<path fill-rule="evenodd" clip-rule="evenodd" d="M41.3125 2.9375C40.8438 2.46875 39.9063 2 38.5 2H21.6231C20.8841 2.00012 20.1523 2.1459 19.4697 2.429C18.787 2.7121 18.1668 3.12698 17.6446 3.6499C17.1224 4.17283 16.7083 4.79355 16.4261 5.47659C16.1439 6.15963 15.9991 6.89159 16 7.63063V41.3694C15.9994 42.1087 16.1445 42.841 16.4271 43.5242C16.7097 44.2074 17.1241 44.8283 17.6468 45.3512C18.1695 45.8741 18.7901 46.2889 19.4732 46.5718C20.1563 46.8548 20.8885 47.0002 21.6278 47H43.014C41.7289 45.9601 40.6385 44.689 39.8061 43.25H21.625C20.5891 43.25 19.75 42.4138 19.75 41.3778V7.62219C19.75 6.58812 20.5928 5.75 21.6156 5.75H38.5V14.1941C38.5005 14.9325 38.6465 15.6637 38.9296 16.3457C39.2127 17.0278 39.6274 17.6474 40.15 18.1691C40.6726 18.6909 41.2929 19.1045 41.9754 19.3865C42.658 19.6685 43.3893 19.8132 44.1278 19.8125H53.5V23.1471C54.8223 23.3435 56.082 23.7316 57.25 24.2822V19.8125C57.25 18.4062 56.7813 17.4688 56.3125 17C56.0887 16.7762 52.7612 13.6625 49.2964 10.4202L48.9372 10.0841L48.0644 9.2675L48.0491 9.25319C44.6732 6.09448 41.5053 3.13033 41.3125 2.9375Z" fill="#147AD9"/>
<path fill-rule="evenodd" clip-rule="evenodd" d="M63 36.5C63 42.299 58.299 47 52.5 47C46.701 47 42 42.299 42 36.5C42 30.701 46.701 26 52.5 26C58.299 26 63 30.701 63 36.5ZM60.6667 36.5C60.6667 41.0103 57.0103 44.6666 52.5 44.6666C47.9897 44.6666 44.3333 41.0103 44.3333 36.5C44.3333 31.9896 47.9897 28.3333 52.5 28.3333C57.0103 28.3333 60.6667 31.9896 60.6667 36.5ZM57.5 37.5C58.25 37.5 58.75 36.875 58.75 36.25C58.75 35.625 58.25 35 57.625 35H47.625C46.875 35 46.375 35.625 46.375 36.25C46.375 37 47 37.5 47.625 37.5H57.5Z" fill="#18DEA7"/>
<path fill-rule="evenodd" clip-rule="evenodd" d="M23.5 14C22.6716 14 22 14.6716 22 15.5C22 16.3284 22.6716 17 23.5 17H31.5C32.3284 17 33 16.3284 33 15.5C33 14.6716 32.3284 14 31.5 14H23.5ZM23.5 21C22.6716 21 22 21.6716 22 22.5C22 23.3284 22.6716 24 23.5 24H39.5C40.3284 24 41 23.3284 41 22.5C41 21.6716 40.3284 21 39.5 21H23.5Z" fill="#18DEA7"/>
</svg>
