<svg width="79" height="50" viewBox="0 0 79 50" fill="none" xmlns="http://www.w3.org/2000/svg">
<path d="M43.1373 7.08606H29.0713C28.0839 7.08606 27.285 7.88496 27.285 8.87236C27.285 9.85976 28.0839 10.6587 29.0713 10.6587H43.1373C44.1247 10.6587 44.9236 9.85976 44.9236 8.87236C44.9236 7.88496 44.1247 7.08606 43.1373 7.08606ZM43.1373 13.4503H29.0713C28.0839 13.4503 27.285 14.2492 27.285 15.2366C27.285 16.224 28.0839 17.0229 29.0713 17.0229H43.1373C44.1247 17.0229 44.9236 16.224 44.9236 15.2366C44.9236 14.2492 44.1247 13.4503 43.1373 13.4503Z" fill="#3EDFB2"/>
<path d="M43.5771 37.6146C43.5771 31.5107 48.5231 26.5647 54.6271 26.5647C55.8838 26.5647 57.0866 26.7801 58.2086 27.1661V24.7964C58.2086 23.9512 57.8729 23.1407 57.2753 22.5431C56.6777 21.9455 55.8672 21.6097 55.022 21.6097H51.9611V5.84724C51.9611 3.17228 49.7888 1 47.1138 1H25.1038C22.4288 1 20.2565 3.17228 20.2565 5.84724V21.6097H17.1866C16.3415 21.6097 15.5309 21.9455 14.9333 22.5431C14.3357 23.1407 14 23.9512 14 24.7964V44.8226C14 45.6678 14.3357 46.4783 14.9333 47.0759C15.5309 47.6735 16.3415 48.0093 17.1866 48.0093H50.9198C46.6471 46.4923 43.5771 42.417 43.5771 37.6146ZM23.8202 5.84724C23.8202 5.14708 24.3946 4.5726 25.0948 4.5726H47.1049C47.805 4.5726 48.3795 5.14708 48.3795 5.84724V21.4123H23.8202V5.84724Z" fill="#147AD9"/>
<path fill-rule="evenodd" clip-rule="evenodd" d="M59.8112 29.6985C58.2612 28.6629 56.4389 28.1101 54.5748 28.1101C52.0751 28.1101 49.6778 29.1031 47.9102 30.8707C46.1426 32.6382 45.1496 35.0356 45.1496 37.5353C45.1496 39.3994 45.7024 41.2217 46.738 42.7716C47.7737 44.3216 49.2457 45.5296 50.9679 46.243C52.6902 46.9564 54.5853 47.143 56.4136 46.7794C58.2419 46.4157 59.9213 45.518 61.2394 44.1999C62.5576 42.8818 63.4552 41.2023 63.8189 39.374C64.1826 37.5457 63.9959 35.6506 63.2825 33.9284C62.5692 32.2062 61.3611 30.7342 59.8112 29.6985ZM52.5428 41.7248C52.7585 41.821 52.9921 41.8708 53.2284 41.8709C53.4639 41.8686 53.6964 41.8171 53.9109 41.7198C54.1254 41.6224 54.3171 41.4812 54.4739 41.3053L59.9539 35.2867C60.1054 35.085 60.1758 34.8339 60.1515 34.5828C60.1271 34.3318 60.0097 34.0989 59.8223 33.9301C59.6349 33.7613 59.3911 33.6687 59.1389 33.6706C58.8866 33.6724 58.6442 33.7686 58.4594 33.9402L53.2284 39.6896L50.6903 36.862C50.5076 36.6795 50.2619 36.574 50.0038 36.567C49.7457 36.5601 49.4947 36.6523 49.3024 36.8247C49.1102 36.9972 48.9913 37.2367 48.9702 37.494C48.9491 37.7514 49.0274 38.0071 49.189 38.2085L51.9762 41.3121C52.134 41.4879 52.3271 41.6285 52.5428 41.7248Z" fill="#3EDFB2"/>
</svg>
