<svg width="79" height="50" viewBox="0 0 79 50" fill="none" xmlns="http://www.w3.org/2000/svg">
<path d="M49.3569 2H49.3621C51.1962 2 52.1133 2.91708 52.1133 4.75123V7.67797C52.1133 9.51213 51.1962 10.4292 49.3621 10.4292H49.3569C47.5227 10.4292 46.6057 9.51213 46.6057 7.67797V4.75123C46.6057 2.91708 47.5227 2 49.3569 2V2Z" fill="#3EDFB2"/>
<path d="M26.9444 2H26.9496C28.7837 2 29.7008 2.91708 29.7008 4.75123V7.67797C29.7008 9.51213 28.7837 10.4292 26.9496 10.4292H26.9444C25.1103 10.4292 24.1932 9.51213 24.1932 7.67797V4.75123C24.1932 2.91708 25.1103 2 26.9444 2V2Z" fill="#3EDFB2"/>
<path d="M22.2679 19.7977H27.4967V25.0266H22.2679V19.7977ZM35.5388 19.7977H40.7677V25.0266H35.5388V19.7977ZM48.8046 19.7977H54.0335V25.0266H48.8046V19.7977ZM22.2679 28.1547H27.4967V33.3836H22.2679V28.1547ZM35.5388 28.1547H40.7677V33.3836H35.5388V28.1547ZM22.2679 36.5116H27.4967V41.7405H22.2679V36.5116ZM35.5388 36.5116H40.7677V41.7405H35.5388V36.5116Z" fill="#3EDFB2"/>
<path fill-rule="evenodd" clip-rule="evenodd" d="M53.4863 4.58069H55.1071C56.7499 4.58069 58.3254 5.23328 59.487 6.39491C60.6487 7.55654 61.3013 9.13205 61.3013 10.7748V28.1003C60.7654 27.781 60.203 27.5017 59.6182 27.2664L59.6288 19.2453C59.6261 18.2085 59.213 17.2149 58.4798 16.4817C57.7467 15.7485 56.7531 15.3354 55.7162 15.3327H20.616C19.5792 15.3354 18.5856 15.7485 17.8524 16.4817C17.1192 17.2149 16.7061 18.2085 16.7034 19.2453V42.6076C16.706 43.6391 17.1149 44.6281 17.8414 45.3604C18.5679 46.0927 19.5536 46.5094 20.5851 46.5202H45.8092C46.4302 47.2441 47.1346 47.8943 47.9075 48.4559H21.1941C20.3807 48.4559 19.5753 48.2957 18.8238 47.9844C18.0722 47.6731 17.3894 47.2169 16.8142 46.6417C15.6526 45.4801 15 43.9046 15 42.2618V10.7748C15 9.13205 15.6526 7.55654 16.8142 6.39491C17.3894 5.81973 18.0722 5.36348 18.8238 5.05219C19.5753 4.7409 20.3807 4.58069 21.1941 4.58069H22.815V8.41074C22.815 9.50593 23.25 10.5563 24.0244 11.3307C24.7989 12.1051 25.8492 12.5402 26.9444 12.5402C28.0396 12.5402 29.0899 12.1051 29.8643 11.3307C30.6388 10.5563 31.0738 9.50593 31.0738 8.41074V4.58069H45.2274V8.41074C45.2274 8.95302 45.3343 9.49 45.5418 9.991C45.7493 10.492 46.0535 10.9472 46.4369 11.3307C46.8204 11.7141 47.2756 12.0183 47.7766 12.2258C48.2776 12.4334 48.8146 12.5402 49.3569 12.5402C49.8992 12.5402 50.4361 12.4334 50.9371 12.2258C51.4381 12.0183 51.8934 11.7141 52.2768 11.3307C52.6603 10.9472 52.9645 10.492 53.172 9.991C53.3795 9.49 53.4863 8.95302 53.4863 8.41074V4.58069Z" fill="#147AD9"/>
<path fill-rule="evenodd" clip-rule="evenodd" d="M55.3129 47.2945C59.6172 47.2945 63.1065 43.8052 63.1065 39.5009C63.1065 35.1966 59.6172 31.7073 55.3129 31.7073C51.0086 31.7073 47.5193 35.1966 47.5193 39.5009C47.5193 43.8052 51.0086 47.2945 55.3129 47.2945ZM55.3129 45.9192C58.8576 45.9192 61.7312 43.0456 61.7312 39.5009C61.7312 35.9562 58.8576 33.0826 55.3129 33.0826C51.7682 33.0826 48.8947 35.9562 48.8947 39.5009C48.8947 43.0456 51.7682 45.9192 55.3129 45.9192Z" fill="#3EDFB2"/>
<path d="M54.8545 30.332C54.8545 30.0788 55.0597 29.8735 55.3129 29.8735C55.5661 29.8735 55.7714 30.0788 55.7714 30.332V31.7073H54.8545V30.332Z" fill="#3EDFB2"/>
<path d="M60.2439 32.0845C60.4085 31.8921 60.6979 31.8695 60.8903 32.034C61.0827 32.1986 61.1053 32.488 60.9408 32.6804L60.047 33.7257L59.3501 33.1298L60.2439 32.0845Z" fill="#3EDFB2"/>
<path d="M54.8545 34.9165C54.8545 34.6633 55.0597 34.458 55.3129 34.458C55.5661 34.458 55.7714 34.6633 55.7714 34.9165V39.0425H54.8545V34.9165Z" fill="#3EDFB2"/>
<path d="M55.3129 40.918C55.8423 40.918 56.2714 40.4889 56.2714 39.9595C56.2714 39.4302 55.8423 39.0011 55.3129 39.0011C54.7836 39.0011 54.3545 39.4302 54.3545 39.9595C54.3545 40.4889 54.7836 40.918 55.3129 40.918Z" stroke="#3EDFB2"/>
<path d="M59.4533 30.779C59.609 30.5794 59.8971 30.5438 60.0968 30.6995L62.2658 32.3911C62.4655 32.5468 62.5011 32.8349 62.3454 33.0345C62.1897 33.2342 61.9016 33.2698 61.7019 33.1141L59.5329 31.4225C59.3332 31.2668 59.2976 30.9787 59.4533 30.779Z" fill="#3EDFB2"/>
</svg>
