<svg width="79" height="50" viewBox="0 0 79 50" fill="none" xmlns="http://www.w3.org/2000/svg">
<path fill-rule="evenodd" clip-rule="evenodd" d="M17 41.2857C17 42.2 17.8212 43 18.7598 43C19.6983 43 20.5196 42.3143 20.5196 41.2857C20.5196 34.6571 24.9777 28.7143 31.4302 26.6571C32.1341 26.5429 32.7207 25.9714 33.0726 25.4C33.8939 24.0286 33.4246 22.3143 32.0168 21.5143C29.5531 20.1429 27.9106 17.4 27.9106 14.5429C27.9106 10.0857 31.6648 6.42857 36.2402 6.42857C37.1788 6.42857 38 5.62857 38 4.71429C38 3.8 37.1788 3 36.2402 3C32.3687 3 28.8492 4.82857 26.6201 7.8C22.8659 12.9429 24.0391 20.1429 29.3184 23.8C21.9274 26.5429 17 33.5143 17 41.2857ZM56.8461 17.8169C56.8461 21.6287 54.9967 24.9884 52.1663 27.0523C53.4712 27.5526 54.7327 28.1987 55.9443 28.9776C56.7334 29.5412 56.8462 30.5558 56.2825 31.3449C55.7188 32.0213 54.817 32.2468 54.0279 31.7959C47.1512 27.1739 37.6817 28.9776 33.0597 35.9669C31.3687 38.4471 30.4669 41.3781 30.4669 44.4219C30.4669 45.211 29.6778 46.0001 28.7759 46.0001C27.8741 46.0001 27.0849 45.211 27.0849 44.3091C27.0849 36.4127 31.9608 29.7185 38.8849 27.0544C36.0336 25.0008 34.187 21.6704 34.187 17.9296C34.187 11.6166 39.26 6.5437 45.4602 6.5437C51.7732 6.5437 56.8461 11.6166 56.8461 17.8169ZM53.5769 17.9296C53.5769 21.9475 50.5641 25.3064 46.6896 25.8551C46.3197 25.8325 45.9475 25.8211 45.573 25.8211C45.1957 25.8211 44.8211 25.8322 44.4496 25.8542C40.5783 25.3025 37.569 21.9452 37.569 17.9296C37.569 13.5331 41.1764 9.92566 45.573 9.92566C49.9695 9.92566 53.4642 13.4204 53.5769 17.9296Z" fill="#147AD9"/>
<path fill-rule="evenodd" clip-rule="evenodd" d="M51.8893 36.3637C51.9128 35.0596 52.9868 34 54.2963 34H56.7037C58.0132 34 59.0872 35.0596 59.1107 36.3637H59.6364C60.9364 36.3637 62 37.4273 62 38.7273V44.6364C62 45.9364 60.9364 47 59.6364 47H51.3636C50.0636 47 49 45.9364 49 44.6364V38.7273C49 37.4273 50.0636 36.3637 51.3636 36.3637H51.8893ZM59.4 43.6908H55.1455C54.7555 43.6908 54.4364 44.0099 54.4364 44.3999C54.4364 44.7899 54.7555 45.109 55.1455 45.109H59.4C59.79 45.109 60.1091 44.7899 60.1091 44.3999C60.1091 44.0099 59.79 43.6908 59.4 43.6908ZM59.4 41.5635H57.2727C56.8827 41.5635 56.5636 41.8826 56.5636 42.2726C56.5636 42.6626 56.8827 42.9817 57.2727 42.9817H59.4C59.79 42.9817 60.1091 42.6626 60.1091 42.2726C60.1091 41.8826 59.79 41.5635 59.4 41.5635Z" fill="#18DEA7"/>
</svg>
