<svg width="79" height="50" viewBox="0 0 79 50" fill="none" xmlns="http://www.w3.org/2000/svg">
<circle cx="39" cy="25" r="22.5" stroke="#147AD9" stroke-width="3"/>
<path fill-rule="evenodd" clip-rule="evenodd" d="M32.5 10H45.5V12H32.5V10ZM30.5 12V10C30.5 8.89543 31.3954 8 32.5 8H45.5C46.6046 8 47.5 8.89543 47.5 10V12H48C49.1046 12 50 12.8954 50 14V16C51.1046 16 52 16.8954 52 18V36C52 37.1046 51.1046 38 50 38H28C26.8954 38 26 37.1046 26 36V18C26 16.8954 26.8954 16 28 16V14C28 12.8954 28.8954 12 30 12H30.5ZM32.5 14H30V16H48L48 14H45.5H32.5ZM29 19V35H49V19H29Z" fill="#147AD9"/>
<path fill-rule="evenodd" clip-rule="evenodd" d="M41 26C40.4477 26 40 26.4477 40 27C40 27.5523 40.4477 28 41 28H46C46.5523 28 47 27.5523 47 27C47 26.4477 46.5523 26 46 26H41ZM35 30C34.4477 30 34 30.4477 34 31C34 31.5523 34.4477 32 35 32H46C46.5523 32 47 31.5523 47 31C47 30.4477 46.5523 30 46 30H35Z" fill="#18DEA7"/>
</svg>
