<svg width="79" height="50" viewBox="0 0 79 50" fill="none" xmlns="http://www.w3.org/2000/svg">
<path d="M34.8125 16.4376C40.5078 16.4376 45.125 21.0548 45.125 26.7501C45.125 28.9251 44.4519 30.9426 43.3025 32.6057L49.2622 38.5664C49.6115 38.9157 49.8078 39.3895 49.8078 39.8836C49.8078 40.3776 49.6115 40.8514 49.2622 41.2007C48.9128 41.5501 48.439 41.7463 47.945 41.7463C47.451 41.7463 46.9772 41.5501 46.6278 41.2007L40.6681 35.2401C38.9475 36.4301 36.9045 37.066 34.8125 37.0626C29.1172 37.0626 24.5 32.4454 24.5 26.7501C24.5 21.0548 29.1172 16.4376 34.8125 16.4376ZM34.8125 20.1876C33.072 20.1876 31.4028 20.879 30.1721 22.1097C28.9414 23.3404 28.25 25.0096 28.25 26.7501C28.25 28.4906 28.9414 30.1598 30.1721 31.3905C31.4028 32.6212 33.072 33.3126 34.8125 33.3126C36.553 33.3126 38.2222 32.6212 39.4529 31.3905C40.6836 30.1598 41.375 28.4906 41.375 26.7501C41.375 25.0096 40.6836 23.3404 39.4529 22.1097C38.2222 20.879 36.553 20.1876 34.8125 20.1876ZM36.1306 9C37.1628 9 38 9.83156 38 10.8806L38 12.6819C38.0012 13.1791 37.805 13.6565 37.4545 14.0091C37.104 14.3617 36.6278 14.5608 36.1306 14.5625L26.3694 14.5626C26.1229 14.5627 25.8788 14.5141 25.6512 14.4195C25.4236 14.3249 25.217 14.1862 25.0433 14.0114C24.8695 13.8366 24.732 13.6291 24.6388 13.401C24.5456 13.1728 24.4984 12.9285 24.5 12.682V10.8807C24.5 9.84198 25.3391 9.0001 26.3694 9.0001L36.1306 9Z" fill="#18DEA7"/>
<path d="M40.5 2C41.9063 2 42.8438 2.46875 43.3125 2.9375C43.5056 3.13062 46.6828 6.10344 50.0644 9.2675L50.9372 10.0841C54.5278 13.4441 58.0809 16.7684 58.3125 17C58.7813 17.4688 59.25 18.4062 59.25 19.8125V41.3675C59.2505 42.1069 59.1053 42.8392 58.8227 43.5225C58.5401 44.2057 58.1257 44.8267 57.603 45.3497C57.0804 45.8728 56.4598 46.2877 55.7768 46.5709C55.0938 46.8541 54.3616 46.9999 53.6222 47H23.6278C22.8885 47.0002 22.1563 46.8548 21.4732 46.5718C20.7901 46.2889 20.1695 45.8741 19.6468 45.3512C19.1241 44.8283 18.7097 44.2074 18.4271 43.5242C18.1445 42.841 17.9994 42.1087 18 41.3694V7.63063C17.9991 6.89159 18.1439 6.15963 18.4261 5.47659C18.7083 4.79355 19.1224 4.17283 19.6446 3.6499C20.1668 3.12698 20.787 2.7121 21.4697 2.429C22.1523 2.1459 22.8841 2.00012 23.6231 2L40.5 2ZM40.5 5.75H23.6156C22.5928 5.75 21.75 6.58812 21.75 7.62219V41.3778C21.75 42.4138 22.5891 43.25 23.625 43.25H53.625C54.6656 43.25 55.5 42.4091 55.5 41.3713V19.8125H46.1278C45.3893 19.8132 44.658 19.6685 43.9754 19.3865C43.2929 19.1045 42.6726 18.6909 42.15 18.1691C41.6274 17.6474 41.2127 17.0278 40.9296 16.3457C40.6465 15.6637 40.5005 14.9325 40.5 14.1941V5.75Z" fill="#147AD9"/>
</svg>
