<svg width="79" height="50" viewBox="0 0 79 50" fill="none" xmlns="http://www.w3.org/2000/svg">
<path fill-rule="evenodd" clip-rule="evenodd" d="M24 20C23.4477 20 23 20.4478 23 21V23C23 23.5522 23.4477 24 24 24H26C26.5523 24 27 23.5522 27 23V21C27 20.4478 26.5523 20 26 20H24ZM30 20C29.4477 20 29 20.4478 29 21V23C29 23.5522 29.4477 24 30 24H46C46.5523 24 47 23.5522 47 23V21C47 20.4478 46.5523 20 46 20H30Z" fill="#18DEA7"/>
<path fill-rule="evenodd" clip-rule="evenodd" d="M23 16C23 17.1045 23.8955 18 25 18C26.1045 18 27 17.1045 27 16C27 14.8955 26.1045 14 25 14C23.8955 14 23 14.8955 23 16ZM24.6216 16.8305C24.5963 16.82 24.5733 16.8047 24.554 16.7853L23.8943 16.1257C23.875 16.1063 23.8596 16.0833 23.8492 16.0581C23.8387 16.0328 23.8333 16.0057 23.8333 15.9783C23.8333 15.9231 23.8553 15.8701 23.8943 15.831C23.9334 15.7919 23.9864 15.77 24.0417 15.77C24.0969 15.77 24.1499 15.7919 24.189 15.831L24.6923 16.3343L25.817 15.2277C25.8363 15.2083 25.8593 15.193 25.8846 15.1825C25.9099 15.172 25.937 15.1666 25.9643 15.1666C25.9917 15.1666 26.0188 15.172 26.0441 15.1825C26.0693 15.193 26.0923 15.2083 26.1117 15.2277C26.131 15.247 26.1464 15.27 26.1568 15.2953C26.1673 15.3205 26.1727 15.3476 26.1727 15.375C26.1727 15.4024 26.1673 15.4295 26.1568 15.4547C26.1464 15.48 26.131 15.503 26.1117 15.5223L24.8487 16.7853C24.8293 16.8047 24.8064 16.82 24.7811 16.8305C24.7558 16.841 24.7287 16.8464 24.7013 16.8464C24.674 16.8464 24.6469 16.841 24.6216 16.8305ZM30 14C29.4477 14 29 14.4477 29 15V17C29 17.5523 29.4477 18 30 18H46C46.5523 18 47 17.5523 47 17V15C47 14.4477 46.5523 14 46 14H30Z" fill="#18DEA7"/>
<path fill-rule="evenodd" clip-rule="evenodd" d="M25 2H23C19.6863 2 17 4.68629 17 8V38C17 41.3137 19.6863 44 23 44H39.7523C39.0405 43.0895 38.4474 42.0818 37.9963 41H24C21.7909 41 20 39.2091 20 37V9C20 6.79086 21.7909 5 24 5H25V6C25 7.10457 25.8954 8 27 8H44C45.1046 8 46 7.10457 46 6V5H47C49.2091 5 51 6.79086 51 9V23.0379C52.0389 23.1169 53.0437 23.3181 54 23.627V8C54 4.68629 51.3137 2 48 2H46H43V5H28V2H25Z" fill="#147AD9"/>
<path fill-rule="evenodd" clip-rule="evenodd" d="M41.6929 26H30C29.4477 26 29 26.4478 29 27V29C29 29.5522 29.4477 30 30 30H38.4644C39.267 28.4602 40.3689 27.1011 41.6929 26ZM23 27C23 26.4478 23.4477 26 24 26H26C26.5523 26 27 26.4478 27 27V29C27 29.5522 26.5523 30 26 30H24C23.4477 30 23 29.5522 23 29V27Z" fill="#18DEA7"/>
<path fill-rule="evenodd" clip-rule="evenodd" d="M50 46C55.5228 46 60 41.5228 60 36C60 30.4772 55.5228 26 50 26C44.4772 26 40 30.4772 40 36C40 41.5228 44.4772 46 50 46ZM50 44.1818C54.5187 44.1818 58.1818 40.5187 58.1818 36C58.1818 31.4813 54.5187 27.8182 50 27.8182C45.4813 27.8182 41.8182 31.4813 41.8182 36C41.8182 40.5187 45.4813 44.1818 50 44.1818Z" fill="#18DEA7"/>
<path fill-rule="evenodd" clip-rule="evenodd" d="M49.875 31C49.3918 31 49 31.3918 49 31.875V37.125C49 37.6082 49.3918 38 49.875 38H55.5625C56.0457 38 56.4375 37.6082 56.4375 37.125C56.4375 36.6418 56.0457 36.25 55.5625 36.25H50.75V31.875C50.75 31.3918 50.3582 31 49.875 31Z" fill="#18DEA7"/>
</svg>
