<svg width="79" height="50" viewBox="0 0 79 50" fill="none" xmlns="http://www.w3.org/2000/svg">
<path d="M27.85 2C24.6191 2 22 4.68628 22 8V12H24.925V10C24.925 7.23853 27.1076 5 29.8 5H53.2C55.8924 5 58.075 7.23853 58.075 10V39C58.075 41.7615 55.8924 44 53.2 44H29.8C27.1076 44 24.925 41.7615 24.925 39V38H22V41C22 44.3137 24.6191 47 27.85 47H55.15C58.3809 47 61 44.3137 61 41V8C61 4.68628 58.3809 2 55.15 2H27.85Z" fill="#147AD9"/>
<path fill-rule="evenodd" clip-rule="evenodd" d="M26.7523 26.9999L29.9219 29.2809C31.0697 30.107 31.3444 31.7269 30.5356 32.899C29.7268 34.0712 28.1406 34.3519 26.9927 33.5257L18.0781 27.1102C17.2673 26.5267 16.8921 25.547 17.0269 24.6087C17.0293 23.8414 17.3633 23.0826 18.0005 22.5721L26.7638 15.5536C27.8688 14.6686 29.4669 14.8658 30.3334 15.9942C31.2 17.1227 31.0067 18.7547 29.9018 19.6398L26.955 21.9999H51.5C52.8807 21.9999 54 23.1192 54 24.4999C54 25.8805 52.8807 26.9999 51.5 26.9999H26.7523Z" fill="#18DEA7"/>
</svg>
