<svg class="icon" style="width: 1em;height: 1em;vertical-align: middle;fill: currentColor;overflow: hidden;" viewBox="0 0 1024 1024" version="1.1" xmlns="http://www.w3.org/2000/svg" p-id="633"><path d="M896 917.333333H128c-12.8 0-21.333333-8.533333-21.333333-21.333333V512c0-12.8 8.533333-21.333333 21.333333-21.333333s21.333333 8.533333 21.333333 21.333333v362.666667h725.333334V512c0-12.8 8.533333-21.333333 21.333333-21.333333s21.333333 8.533333 21.333333 21.333333v384c0 12.8-8.533333 21.333333-21.333333 21.333333zM704 341.333333c-6.4 0-10.666667-2.133333-14.933333-6.4L512 157.866667l-177.066667 177.066666c-8.533333 8.533333-21.333333 8.533333-29.866666 0-8.533333-8.533333-8.533333-21.333333 0-29.866666l192-192c8.533333-8.533333 21.333333-8.533333 29.866666 0l192 192c8.533333 8.533333 8.533333 21.333333 0 29.866666-4.266667 4.266667-8.533333 6.4-14.933333 6.4zM512 704c-12.8 0-21.333333-8.533333-21.333333-21.333333V128c0-12.8 8.533333-21.333333 21.333333-21.333333s21.333333 8.533333 21.333333 21.333333v554.666667c0 12.8-10.666667 21.333333-21.333333 21.333333z" p-id="634"></path></svg>