<svg xmlns="http://www.w3.org/2000/svg" fill="none" width="46" height="46" viewBox="0 0 46 46" class="design-iconfont">
  <g clip-path="url(#jlxgybr9n__clip0_2172_26800)">
    <path fill="#606266" clip-rule="evenodd" d="M18.1015 27.8348L31.7744 35.6756C32.0564 35.8405 32.366 35.9394 32.6701 35.9778H32.6756C32.9963 36.0218 33.3225 35.9943 33.6211 35.9174C33.9252 35.835 34.2182 35.6976 34.4781 35.4998C34.6992 35.3295 34.8983 35.1152 35.0586 34.8624L35.1139 34.78L35.8271 33.4943L38.3317 34.9339C38.8956 35.258 39.6199 35.0712 39.9461 34.5053L44.6014 26.5216C44.889 26.0216 44.7673 25.3952 44.3361 25.038L45.4087 24.3072L45.4474 24.2743C45.6409 24.1314 45.8344 23.9226 45.9284 23.6149C46.0942 23.0819 45.9947 22.5764 45.3866 22.1973L45.3534 22.1753L12.4786 3.32868C12.1856 3.16384 11.8705 3.05944 11.5553 3.02098C11.2291 2.97702 10.9029 3.00449 10.5988 3.08142C10.2837 3.16384 9.99065 3.3067 9.72526 3.50451C9.5041 3.67484 9.29954 3.88913 9.14473 4.14738L9.08944 4.2298L4.42306 12.2575C4.2572 12.5432 4.15768 12.8509 4.11344 13.1696C4.07474 13.4718 4.09133 13.774 4.1632 14.0652L4.17979 14.1366C4.26272 14.4443 4.40648 14.7356 4.60552 14.9993C4.74374 15.1751 4.90407 15.34 5.09758 15.4773L4.19638 17.0708C4.03604 17.351 3.93652 17.6587 3.89782 17.9664C3.85359 18.2906 3.88123 18.6093 3.95864 18.906C4.04157 19.2082 4.17979 19.4994 4.37883 19.7577C4.56681 19.9994 4.80455 20.2137 5.09758 20.3841L16.0448 26.6699L18.1015 27.8348ZM33.8644 29.2909L33.9086 29.3019L42.6443 23.3402L11.29 5.3562C11.2789 5.35071 11.2679 5.34521 11.2513 5.34521C11.2347 5.34521 11.2126 5.34521 11.1904 5.35071L11.1818 5.35467C11.1719 5.3591 11.1602 5.36429 11.1517 5.37269L11.1352 5.38917C10.4544 6.60546 9.73399 7.81387 9.01341 9.02255C8.14217 10.4839 7.2707 11.9457 6.46878 13.4223C6.46231 13.4352 6.45773 13.4462 6.45393 13.4553L6.45393 13.4553C6.45125 13.4618 6.44896 13.4672 6.44667 13.4718L6.45773 13.5267C6.46326 13.5432 6.46878 13.5597 6.47984 13.5707L6.49643 13.5872C9.51482 15.3013 12.707 17.2184 15.9538 19.1682L15.954 19.1684L15.9541 19.1684L15.9542 19.1685L15.9542 19.1685L15.9543 19.1685L15.9543 19.1686C21.991 22.7939 28.2164 26.5326 33.8644 29.2909ZM38.3262 29.137L36.9937 31.4613L38.4921 32.3239L41.6878 26.8458L38.3262 29.137ZM6.26974 18.3455L6.25316 18.3291L6.2421 18.2961L6.23657 18.2576C6.4522 17.7851 6.78946 17.2027 7.11566 16.6477L32.6591 31.3074C32.8194 31.4008 32.9908 31.4722 33.1622 31.5272L33.2839 31.5657C33.494 31.6206 33.7262 31.6536 33.9584 31.6481C34.0413 31.6481 34.1243 31.6426 34.2072 31.6316C33.599 32.6975 33.0793 33.5822 33.024 33.6316L32.9908 33.6481L32.9577 33.6536L32.93 33.6481L6.26974 18.3455Z"/>
    <path fill="#409eff" d="M0 24.1314V41.8241C0 42.4725 0.530773 43 1.18318 43H2.89161C3.42791 43 3.95315 42.8901 4.42864 42.6923C4.88753 42.5 5.30773 42.2307 5.66158 41.8956L5.73898 41.8296C6.10942 41.4615 6.40798 41.0219 6.61254 40.5274C6.81158 40.0549 6.92216 39.5329 6.92216 38.9999V34.4723H8.74669C8.77434 34.5382 8.79645 34.6042 8.8241 34.6701C9.08948 35.302 9.47097 35.868 9.94093 36.335H9.94646C10.4219 36.802 10.9859 37.1812 11.6162 37.4449C12.2244 37.6977 12.8878 37.835 13.5789 37.835C14.2424 37.835 14.8893 37.7032 15.4809 37.4669L15.5472 37.4449C16.1443 37.1977 16.6862 36.846 17.1451 36.4009L17.2169 36.335C17.6869 35.868 18.0684 35.302 18.3282 34.6701C18.5826 34.0657 18.7208 33.4064 18.7208 32.7195C18.7208 32.0382 18.577 31.3788 18.3282 30.7689C18.0879 30.1884 17.7411 29.6574 17.3054 29.203L18.1016 27.8348L31.7745 35.6756C32.0565 35.8405 32.3661 35.9394 32.6702 35.9778H32.6757C32.9964 36.0218 33.3226 35.9943 33.6211 35.9174C33.9252 35.835 34.2183 35.6976 34.4781 35.4998C34.6993 35.3295 34.8983 35.1152 35.0586 34.8624L35.1139 34.78L35.8272 33.4943L38.3317 34.9339C38.8957 35.258 39.62 35.0712 39.9462 34.5053L44.6015 26.5216C44.889 26.0216 44.7674 25.3952 44.3361 25.038L45.4087 24.3072L45.4474 24.2743C45.6409 24.1314 45.8344 23.9226 45.9284 23.6149C46.0943 23.0819 45.9948 22.5764 45.3866 22.1973L45.3534 22.1753L12.4787 3.32868C12.1857 3.16384 11.8705 3.05944 11.5554 3.02098C11.2292 2.97702 10.903 3.00449 10.5989 3.08142C10.2837 3.16384 9.99069 3.3067 9.7253 3.50451C9.50415 3.67484 9.29958 3.88913 9.14477 4.14738L9.08948 4.2298L4.42311 12.2575C4.25724 12.5432 4.15772 12.8509 4.11349 13.1696C4.07479 13.4718 4.09137 13.774 4.16325 14.0652L4.17984 14.1366C4.26277 14.4443 4.40652 14.7356 4.60556 14.9993C4.74378 15.1751 4.90412 15.34 5.09763 15.4773L4.19642 17.0708C4.03608 17.351 3.93656 17.6587 3.89786 17.9664C3.85363 18.2906 3.88128 18.6093 3.95868 18.906C4.04161 19.2082 4.17984 19.4994 4.37887 19.7577C4.56686 19.9994 4.8046 20.2137 5.09763 20.3841L16.0448 26.6699L15.315 27.9172C14.7676 27.7194 14.1761 27.6095 13.5679 27.6095C12.8768 27.6095 12.2188 27.7469 11.6051 27.9996C10.9748 28.2579 10.4109 28.637 9.9354 29.104L9.92987 29.1095C9.45992 29.5766 9.07842 30.1425 8.81857 30.7634C8.64164 31.192 8.52001 31.6481 8.46472 32.1151H6.92216V26.9611C6.92216 26.4501 6.82264 25.9556 6.64019 25.4996L6.61807 25.4336C6.4135 24.9446 6.11494 24.505 5.74451 24.1369C5.39066 23.7852 4.97047 23.4995 4.50604 23.2962L4.43969 23.2687C3.96421 23.0709 3.43896 22.961 2.90266 22.961H1.19424C0.530773 22.9555 0 23.483 0 24.1314ZM36.9938 31.4613L38.3262 29.137L41.6878 26.8457L38.4921 32.3239L36.9938 31.4613ZM33.9086 29.3019L33.8644 29.2909C25.1785 25.049 15.127 18.4884 6.49644 13.5872L6.47985 13.5707C6.46879 13.5597 6.46326 13.5432 6.45773 13.5267L6.44668 13.4718C6.45221 13.4608 6.45773 13.4443 6.46879 13.4223C7.93395 10.7245 9.63131 8.07605 11.1352 5.38917L11.1518 5.37269C11.1628 5.3617 11.1794 5.3562 11.1905 5.35071C11.2126 5.34521 11.2347 5.34521 11.2513 5.34521C11.2679 5.34521 11.2789 5.35071 11.29 5.3562L42.6443 23.3402L33.9086 29.3019ZM6.26975 18.3455L6.25317 18.3291L6.24211 18.2961L6.23658 18.2576C6.45221 17.7851 6.78947 17.2027 7.11567 16.6477L32.6591 31.3074C32.8194 31.4008 32.9908 31.4722 33.1622 31.5272L33.2839 31.5656C33.494 31.6206 33.7262 31.6536 33.9584 31.6481C34.0413 31.6481 34.1243 31.6426 34.2072 31.6316C33.599 32.6975 33.0793 33.5822 33.024 33.6316L32.9908 33.6481L32.9577 33.6536L32.93 33.6481L6.26975 18.3455ZM10.7924 32.714C10.7924 32.3349 10.8643 31.9777 10.9969 31.6536C11.1352 31.3239 11.3397 31.0162 11.5941 30.7634V30.7579C11.8539 30.4997 12.158 30.3019 12.4953 30.1645C12.8159 30.0326 13.1753 29.9612 13.5623 29.9612C13.9438 29.9612 14.3032 30.0326 14.6239 30.1645C14.9612 30.3019 15.2652 30.5052 15.5196 30.7579L15.5251 30.7634C15.7794 31.0217 15.984 31.3239 16.1278 31.6536C16.2604 31.9723 16.3323 32.3294 16.3323 32.714C16.3323 33.0987 16.2604 33.4503 16.1278 33.7745C15.9951 34.1042 15.785 34.4064 15.5251 34.6646L15.4753 34.7141C15.2321 34.9449 14.939 35.1317 14.6239 35.2635L14.5797 35.2855C14.27 35.4064 13.9273 35.4723 13.5623 35.4723C13.1753 35.4723 12.8215 35.4009 12.4953 35.269C12.158 35.1317 11.8539 34.9229 11.5996 34.6701V34.6646C11.3397 34.4064 11.1352 34.1042 10.9969 33.7745C10.9195 33.5822 10.8587 33.3844 10.8256 33.1756C10.8256 33.1426 10.82 33.1096 10.8145 33.0822C10.8034 32.9558 10.7924 32.8349 10.7924 32.714ZM2.36636 25.3072H2.89161C3.11829 25.3072 3.33392 25.3512 3.52743 25.4281L3.57166 25.4446C3.75411 25.527 3.92551 25.6424 4.06373 25.7798C4.21854 25.9336 4.3457 26.1205 4.42864 26.3238L4.44522 26.3622C4.5171 26.5435 4.55027 26.7414 4.55027 26.9556V38.9834C4.55027 39.2087 4.50604 39.423 4.42864 39.6153C4.3457 39.8131 4.21854 39.9999 4.06373 40.1538L4.0195 40.1977C3.87575 40.3351 3.70435 40.4395 3.5219 40.5164C3.32839 40.5933 3.11829 40.6373 2.89161 40.6373H2.36636V25.3072Z"/>
  </g>
  <defs>
    <clipPath id="jlxgybr9n__clip0_2172_26800">
      <path fill="#fff" d="M0 0H46V46H0z"/>
    </clipPath>
  </defs>
</svg>
